<?xml version="1.0" encoding="UTF-8"?>
<!DOCTYPE svg PUBLIC "-//W3C//DTD SVG 1.1//EN" "http://www.w3.org/Graphics/SVG/1.1/DTD/svg11.dtd">
<svg xmlns="http://www.w3.org/2000/svg" version="1.1" width="351px" height="351px" style="shape-rendering:geometricPrecision; text-rendering:geometricPrecision; image-rendering:optimizeQuality; fill-rule:evenodd; clip-rule:evenodd" xmlns:xlink="http://www.w3.org/1999/xlink">
<g><path style="opacity:0.539" fill="#fdfdfd" d="M 154.5,-0.5 C 168.833,-0.5 183.167,-0.5 197.5,-0.5C 197.5,0.5 197.5,1.5 197.5,2.5C 202.167,2.5 206.833,2.5 211.5,2.5C 211.5,3.5 211.5,4.5 211.5,5.5C 216.5,5.5 221.5,5.5 226.5,5.5C 226.5,6.5 226.5,7.5 226.5,8.5C 231.222,8.84823 235.889,9.5149 240.5,10.5C 240.5,11.5 240.5,12.5 240.5,13.5C 243.5,13.5 246.5,13.5 249.5,13.5C 249.5,14.5 249.5,15.5 249.5,16.5C 251.167,16.5 252.833,16.5 254.5,16.5C 254.5,17.5 254.5,18.5 254.5,19.5C 256.5,19.5 258.5,19.5 260.5,19.5C 260.5,20.5 260.5,21.5 260.5,22.5C 262.5,22.5 264.5,22.5 266.5,22.5C 266.5,23.5 266.5,24.5 266.5,25.5C 267.5,25.5 268.5,25.5 269.5,25.5C 269.5,26.5 269.5,27.5 269.5,28.5C 271.167,28.5 272.833,28.5 274.5,28.5C 274.5,29.5 274.5,30.5 274.5,31.5C 277.664,31.5578 280.664,32.2245 283.5,33.5C 283.5,34.5 283.5,35.5 283.5,36.5C 284.5,36.5 285.5,36.5 286.5,36.5C 286.5,37.5 286.5,38.5 286.5,39.5C 288.5,39.5 290.5,39.5 292.5,39.5C 292.558,42.6644 293.224,45.6644 294.5,48.5C 296.5,48.5 298.5,48.5 300.5,48.5C 300.5,50.5 300.5,52.5 300.5,54.5C 302.5,55.1667 304.5,55.8333 306.5,56.5C 306.5,57.5 306.5,58.5 306.5,59.5C 307.5,59.5 308.5,59.5 309.5,59.5C 309.5,60.5 309.5,61.5 309.5,62.5C 310.5,62.5 311.5,62.5 312.5,62.5C 312.5,63.5 312.5,64.5 312.5,65.5C 313.5,65.5 314.5,65.5 315.5,65.5C 316.776,68.3356 317.442,71.3356 317.5,74.5C 319.5,75.1667 321.5,75.8333 323.5,76.5C 323.5,78.5 323.5,80.5 323.5,82.5C 324.5,82.5 325.5,82.5 326.5,82.5C 326.5,84.5 326.5,86.5 326.5,88.5C 327.5,88.5 328.5,88.5 329.5,88.5C 329.5,90.5 329.5,92.5 329.5,94.5C 330.5,94.5 331.5,94.5 332.5,94.5C 332.5,95.5 332.5,96.5 332.5,97.5C 333.5,97.5 334.5,97.5 335.5,97.5C 335.5,101.167 335.5,104.833 335.5,108.5C 336.5,108.5 337.5,108.5 338.5,108.5C 339.953,111.986 340.619,115.653 340.5,119.5C 341.5,119.5 342.5,119.5 343.5,119.5C 343.5,123.5 343.5,127.5 343.5,131.5C 344.5,131.5 345.5,131.5 346.5,131.5C 346.5,135.167 346.5,138.833 346.5,142.5C 347.5,142.5 348.5,142.5 349.5,142.5C 349.5,164.5 349.5,186.5 349.5,208.5C 348.5,208.5 347.5,208.5 346.5,208.5C 346.5,212.5 346.5,216.5 346.5,220.5C 345.5,220.5 344.5,220.5 343.5,220.5C 343.5,224.167 343.5,227.833 343.5,231.5C 342.5,231.5 341.5,231.5 340.5,231.5C 340.5,234.5 340.5,237.5 340.5,240.5C 338.833,240.5 337.167,240.5 335.5,240.5C 335.5,244.167 335.5,247.833 335.5,251.5C 334.5,251.5 333.5,251.5 332.5,251.5C 332.5,253.5 332.5,255.5 332.5,257.5C 331.5,257.5 330.5,257.5 329.5,257.5C 329.5,259.5 329.5,261.5 329.5,263.5C 328.5,263.5 327.5,263.5 326.5,263.5C 326.5,264.5 326.5,265.5 326.5,266.5C 325.5,266.5 324.5,266.5 323.5,266.5C 323.5,268.5 323.5,270.5 323.5,272.5C 321.5,273.167 319.5,273.833 317.5,274.5C 317.442,277.664 316.776,280.664 315.5,283.5C 314.5,283.5 313.5,283.5 312.5,283.5C 312.5,284.5 312.5,285.5 312.5,286.5C 311.5,286.5 310.5,286.5 309.5,286.5C 309.5,288.5 309.5,290.5 309.5,292.5C 307.5,292.5 305.5,292.5 303.5,292.5C 303.5,294.167 303.5,295.833 303.5,297.5C 302.5,297.5 301.5,297.5 300.5,297.5C 300.5,298.5 300.5,299.5 300.5,300.5C 299.5,300.5 298.5,300.5 297.5,300.5C 297.5,301.5 297.5,302.5 297.5,303.5C 295.833,303.5 294.167,303.5 292.5,303.5C 292.5,305.5 292.5,307.5 292.5,309.5C 290.5,309.5 288.5,309.5 286.5,309.5C 286.5,310.5 286.5,311.5 286.5,312.5C 285.5,312.5 284.5,312.5 283.5,312.5C 283.5,313.5 283.5,314.5 283.5,315.5C 280.664,316.776 277.664,317.442 274.5,317.5C 274.5,318.5 274.5,319.5 274.5,320.5C 272.833,320.5 271.167,320.5 269.5,320.5C 269.5,321.5 269.5,322.5 269.5,323.5C 268.5,323.5 267.5,323.5 266.5,323.5C 266.5,324.5 266.5,325.5 266.5,326.5C 264.5,326.5 262.5,326.5 260.5,326.5C 260.5,327.5 260.5,328.5 260.5,329.5C 259.5,329.5 258.5,329.5 257.5,329.5C 257.5,330.5 257.5,331.5 257.5,332.5C 255.5,332.5 253.5,332.5 251.5,332.5C 251.5,333.5 251.5,334.5 251.5,335.5C 247.833,335.5 244.167,335.5 240.5,335.5C 240.5,336.5 240.5,337.5 240.5,338.5C 237.014,339.953 233.347,340.619 229.5,340.5C 229.5,341.5 229.5,342.5 229.5,343.5C 224.5,343.5 219.5,343.5 214.5,343.5C 214.5,344.5 214.5,345.5 214.5,346.5C 211.833,346.5 209.167,346.5 206.5,346.5C 206.5,347.5 206.5,348.5 206.5,349.5C 186.167,349.5 165.833,349.5 145.5,349.5C 145.5,348.5 145.5,347.5 145.5,346.5C 142.833,346.5 140.167,346.5 137.5,346.5C 137.5,345.5 137.5,344.5 137.5,343.5C 132.5,343.5 127.5,343.5 122.5,343.5C 122.5,342.5 122.5,341.5 122.5,340.5C 117.778,340.152 113.111,339.485 108.5,338.5C 108.5,337.5 108.5,336.5 108.5,335.5C 105.5,335.5 102.5,335.5 99.5,335.5C 98.8333,333.5 98.1667,331.5 97.5,329.5C 95.5,329.5 93.5,329.5 91.5,329.5C 91.5,328.5 91.5,327.5 91.5,326.5C 89.5,326.5 87.5,326.5 85.5,326.5C 85.5,325.5 85.5,324.5 85.5,323.5C 84.5,323.5 83.5,323.5 82.5,323.5C 82.5,322.5 82.5,321.5 82.5,320.5C 80.5,320.5 78.5,320.5 76.5,320.5C 76.5,319.5 76.5,318.5 76.5,317.5C 74.8333,317.5 73.1667,317.5 71.5,317.5C 71.5,315.833 71.5,314.167 71.5,312.5C 69.5,312.5 67.5,312.5 65.5,312.5C 65.5,311.5 65.5,310.5 65.5,309.5C 63.5,309.5 61.5,309.5 59.5,309.5C 59.5,307.5 59.5,305.5 59.5,303.5C 57.8333,303.5 56.1667,303.5 54.5,303.5C 54.5,302.5 54.5,301.5 54.5,300.5C 53.5,300.5 52.5,300.5 51.5,300.5C 51.5,299.5 51.5,298.5 51.5,297.5C 50.5,297.5 49.5,297.5 48.5,297.5C 48.5,295.833 48.5,294.167 48.5,292.5C 46.5,292.5 44.5,292.5 42.5,292.5C 42.5,290.5 42.5,288.5 42.5,286.5C 41.5,286.5 40.5,286.5 39.5,286.5C 39.5,285.5 39.5,284.5 39.5,283.5C 38.5,283.5 37.5,283.5 36.5,283.5C 36.5,282.5 36.5,281.5 36.5,280.5C 35.5,280.5 34.5,280.5 33.5,280.5C 34.1967,276.173 32.53,273.506 28.5,272.5C 28.5,270.5 28.5,268.5 28.5,266.5C 27.5,266.5 26.5,266.5 25.5,266.5C 25.5,265.5 25.5,264.5 25.5,263.5C 24.5,263.5 23.5,263.5 22.5,263.5C 22.5,260.5 22.5,257.5 22.5,254.5C 21.5,254.5 20.5,254.5 19.5,254.5C 19.5,253.5 19.5,252.5 19.5,251.5C 18.5,251.5 17.5,251.5 16.5,251.5C 16.5,248.833 16.5,246.167 16.5,243.5C 15.5,243.5 14.5,243.5 13.5,243.5C 13.5,241.5 13.5,239.5 13.5,237.5C 12.5,237.5 11.5,237.5 10.5,237.5C 10.4229,231.748 9.7562,226.081 8.5,220.5C 7.5,220.5 6.5,220.5 5.5,220.5C 5.5,216.5 5.5,212.5 5.5,208.5C 4.5,208.5 3.5,208.5 2.5,208.5C 2.5,185.833 2.5,163.167 2.5,140.5C 3.5,140.5 4.5,140.5 5.5,140.5C 5.5,136.5 5.5,132.5 5.5,128.5C 6.5,128.5 7.5,128.5 8.5,128.5C 9.7562,122.919 10.4229,117.252 10.5,111.5C 11.5,111.5 12.5,111.5 13.5,111.5C 13.5,109.5 13.5,107.5 13.5,105.5C 14.5,105.5 15.5,105.5 16.5,105.5C 16.5,103.5 16.5,101.5 16.5,99.5C 17.5,99.5 18.5,99.5 19.5,99.5C 19.5,97.8333 19.5,96.1667 19.5,94.5C 20.5,94.5 21.5,94.5 22.5,94.5C 22.5,91.5 22.5,88.5 22.5,85.5C 23.5,85.5 24.5,85.5 25.5,85.5C 25.5,84.5 25.5,83.5 25.5,82.5C 26.5,82.5 27.5,82.5 28.5,82.5C 28.5,80.5 28.5,78.5 28.5,76.5C 31.5,76.1667 33.1667,74.5 33.5,71.5C 34.5,71.5 35.5,71.5 36.5,71.5C 36.5,69.5 36.5,67.5 36.5,65.5C 37.5,65.5 38.5,65.5 39.5,65.5C 39.5,64.5 39.5,63.5 39.5,62.5C 40.5,62.5 41.5,62.5 42.5,62.5C 42.5,61.5 42.5,60.5 42.5,59.5C 43.5,59.5 44.5,59.5 45.5,59.5C 45.5,58.5 45.5,57.5 45.5,56.5C 47.5,55.8333 49.5,55.1667 51.5,54.5C 51.5,52.5 51.5,50.5 51.5,48.5C 53.1667,48.5 54.8333,48.5 56.5,48.5C 56.5,47.5 56.5,46.5 56.5,45.5C 57.5,45.5 58.5,45.5 59.5,45.5C 59.5,44.5 59.5,43.5 59.5,42.5C 60.5,42.5 61.5,42.5 62.5,42.5C 62.5,41.5 62.5,40.5 62.5,39.5C 63.5,39.5 64.5,39.5 65.5,39.5C 65.5,38.5 65.5,37.5 65.5,36.5C 67.5,36.5 69.5,36.5 71.5,36.5C 71.5,34.8333 71.5,33.1667 71.5,31.5C 73.1667,31.5 74.8333,31.5 76.5,31.5C 76.5,30.5 76.5,29.5 76.5,28.5C 78.5,28.5 80.5,28.5 82.5,28.5C 82.5,27.5 82.5,26.5 82.5,25.5C 83.5,25.5 84.5,25.5 85.5,25.5C 85.5,24.5 85.5,23.5 85.5,22.5C 87.5,22.5 89.5,22.5 91.5,22.5C 91.5,21.5 91.5,20.5 91.5,19.5C 93.5,19.5 95.5,19.5 97.5,19.5C 97.5,18.5 97.5,17.5 97.5,16.5C 99.1667,16.5 100.833,16.5 102.5,16.5C 102.5,15.5 102.5,14.5 102.5,13.5C 105.5,13.5 108.5,13.5 111.5,13.5C 111.5,12.5 111.5,11.5 111.5,10.5C 116.111,9.5149 120.778,8.84823 125.5,8.5C 125.5,7.5 125.5,6.5 125.5,5.5C 130.5,5.5 135.5,5.5 140.5,5.5C 140.5,4.5 140.5,3.5 140.5,2.5C 145.167,2.5 149.833,2.5 154.5,2.5C 154.5,1.5 154.5,0.5 154.5,-0.5 Z M 145.5,5.5 C 147.5,5.5 149.5,5.5 151.5,5.5C 151.5,6.5 151.5,7.5 151.5,8.5C 154.664,8.55779 157.664,9.22446 160.5,10.5C 160.5,11.5 160.5,12.5 160.5,13.5C 161.5,13.5 162.5,13.5 163.5,13.5C 163.5,14.5 163.5,15.5 163.5,16.5C 160.5,16.5 157.5,16.5 154.5,16.5C 154.5,15.5 154.5,14.5 154.5,13.5C 153.5,13.5 152.5,13.5 151.5,13.5C 151.5,12.5 151.5,11.5 151.5,10.5C 149.5,9.83333 147.5,9.16667 145.5,8.5C 145.5,7.5 145.5,6.5 145.5,5.5 Z M 160.5,5.5 C 163.167,5.5 165.833,5.5 168.5,5.5C 168.5,6.5 168.5,7.5 168.5,8.5C 170.5,9.16667 172.5,9.83333 174.5,10.5C 174.5,11.5 174.5,12.5 174.5,13.5C 175.5,13.5 176.5,13.5 177.5,13.5C 177.5,14.5 177.5,15.5 177.5,16.5C 174.5,16.5 171.5,16.5 168.5,16.5C 168.5,15.5 168.5,14.5 168.5,13.5C 167.5,13.5 166.5,13.5 165.5,13.5C 165.167,10.5 163.5,8.83333 160.5,8.5C 160.5,7.5 160.5,6.5 160.5,5.5 Z M 177.5,5.5 C 179.5,5.5 181.5,5.5 183.5,5.5C 183.833,8.5 185.5,10.1667 188.5,10.5C 188.5,11.5 188.5,12.5 188.5,13.5C 189.5,13.5 190.5,13.5 191.5,13.5C 191.5,14.5 191.5,15.5 191.5,16.5C 188.833,16.5 186.167,16.5 183.5,16.5C 183.5,15.5 183.5,14.5 183.5,13.5C 182.5,13.5 181.5,13.5 180.5,13.5C 180.5,11.8333 180.5,10.1667 180.5,8.5C 179.5,8.5 178.5,8.5 177.5,8.5C 177.5,7.5 177.5,6.5 177.5,5.5 Z M 188.5,5.5 C 191.5,5.5 194.5,5.5 197.5,5.5C 197.5,6.5 197.5,7.5 197.5,8.5C 198.5,8.5 199.5,8.5 200.5,8.5C 200.5,10.1667 200.5,11.8333 200.5,13.5C 201.5,13.5 202.5,13.5 203.5,13.5C 203.5,15.5 203.5,17.5 203.5,19.5C 202.5,19.5 201.5,19.5 200.5,19.5C 200.5,18.5 200.5,17.5 200.5,16.5C 199.5,16.5 198.5,16.5 197.5,16.5C 197.5,15.5 197.5,14.5 197.5,13.5C 196.5,13.5 195.5,13.5 194.5,13.5C 194.5,12.5 194.5,11.5 194.5,10.5C 192.5,9.83333 190.5,9.16667 188.5,8.5C 188.5,7.5 188.5,6.5 188.5,5.5 Z M 206.5,8.5 C 205.5,8.5 204.5,8.5 203.5,8.5C 203.5,7.5 203.5,6.5 203.5,5.5C 204.5,5.5 205.5,5.5 206.5,5.5C 206.5,6.5 206.5,7.5 206.5,8.5 Z M 134.5,8.5 C 137.025,9.64002 139.692,10.3067 142.5,10.5C 142.5,11.5 142.5,12.5 142.5,13.5C 143.5,13.5 144.5,13.5 145.5,13.5C 145.5,14.5 145.5,15.5 145.5,16.5C 146.5,16.5 147.5,16.5 148.5,16.5C 148.5,17.5 148.5,18.5 148.5,19.5C 145.833,19.5 143.167,19.5 140.5,19.5C 140.5,18.5 140.5,17.5 140.5,16.5C 139.5,16.5 138.5,16.5 137.5,16.5C 137.5,15.5 137.5,14.5 137.5,13.5C 135.5,13.5 133.5,13.5 131.5,13.5C 131.5,12.5 131.5,11.5 131.5,10.5C 133.179,10.7148 134.179,10.0481 134.5,8.5 Z M 206.5,8.5 C 209.308,8.69332 211.975,9.35998 214.5,10.5C 214.5,12.5 214.5,14.5 214.5,16.5C 215.5,16.5 216.5,16.5 217.5,16.5C 217.5,18.5 217.5,20.5 217.5,22.5C 215.5,22.5 213.5,22.5 211.5,22.5C 211.5,21.5 211.5,20.5 211.5,19.5C 210.5,19.5 209.5,19.5 208.5,19.5C 208.039,15.7878 207.373,12.1211 206.5,8.5 Z M 220.5,10.5 C 222.5,10.5 224.5,10.5 226.5,10.5C 226.5,12.5 226.5,14.5 226.5,16.5C 227.5,16.5 228.5,16.5 229.5,16.5C 229.558,19.6644 230.224,22.6644 231.5,25.5C 229.833,25.5 228.167,25.5 226.5,25.5C 226.5,24.5 226.5,23.5 226.5,22.5C 225.5,22.5 224.5,22.5 223.5,22.5C 223.5,20.5 223.5,18.5 223.5,16.5C 222.5,16.5 221.5,16.5 220.5,16.5C 220.5,14.5 220.5,12.5 220.5,10.5 Z M 117.5,13.5 C 121.167,13.5 124.833,13.5 128.5,13.5C 128.5,14.5 128.5,15.5 128.5,16.5C 129.5,16.5 130.5,16.5 131.5,16.5C 131.5,17.5 131.5,18.5 131.5,19.5C 132.5,19.5 133.5,19.5 134.5,19.5C 134.5,20.5 134.5,21.5 134.5,22.5C 131.5,22.5 128.5,22.5 125.5,22.5C 125.5,21.5 125.5,20.5 125.5,19.5C 123.5,19.5 121.5,19.5 119.5,19.5C 118.833,17.5 118.167,15.5 117.5,13.5 Z M 231.5,13.5 C 233.5,13.5 235.5,13.5 237.5,13.5C 237.5,14.5 237.5,15.5 237.5,16.5C 238.5,16.5 239.5,16.5 240.5,16.5C 240.5,19.5 240.5,22.5 240.5,25.5C 241.5,25.5 242.5,25.5 243.5,25.5C 243.5,27.5 243.5,29.5 243.5,31.5C 242.5,31.5 241.5,31.5 240.5,31.5C 240.5,30.5 240.5,29.5 240.5,28.5C 238.5,28.5 236.5,28.5 234.5,28.5C 234.5,24.5 234.5,20.5 234.5,16.5C 233.5,16.5 232.5,16.5 231.5,16.5C 231.5,15.5 231.5,14.5 231.5,13.5 Z M 102.5,19.5 C 106.5,19.5 110.5,19.5 114.5,19.5C 114.5,20.5 114.5,21.5 114.5,22.5C 116.167,22.5 117.833,22.5 119.5,22.5C 119.5,24.5 119.5,26.5 119.5,28.5C 117.833,28.5 116.167,28.5 114.5,28.5C 114.5,27.5 114.5,26.5 114.5,25.5C 112.5,25.5 110.5,25.5 108.5,25.5C 108.5,24.5 108.5,23.5 108.5,22.5C 106.5,22.5 104.5,22.5 102.5,22.5C 102.5,21.5 102.5,20.5 102.5,19.5 Z M 329.5,194.5 C 328.5,194.5 327.5,194.5 326.5,194.5C 326.5,195.5 326.5,196.5 326.5,197.5C 326.5,202.167 326.5,206.833 326.5,211.5C 325.5,211.5 324.5,211.5 323.5,211.5C 323.5,214.5 323.5,217.5 323.5,220.5C 322.5,220.5 321.5,220.5 320.5,220.5C 320.5,224.167 320.5,227.833 320.5,231.5C 319.5,231.5 318.5,231.5 317.5,231.5C 315.987,235.318 315.32,239.318 315.5,243.5C 314.5,243.5 313.5,243.5 312.5,243.5C 312.5,244.5 312.5,245.5 312.5,246.5C 311.5,246.5 310.5,246.5 309.5,246.5C 309.5,249.167 309.5,251.833 309.5,254.5C 308.5,254.5 307.5,254.5 306.5,254.5C 306.5,255.5 306.5,256.5 306.5,257.5C 305.5,257.5 304.5,257.5 303.5,257.5C 303.5,258.5 303.5,259.5 303.5,260.5C 302.5,260.5 301.5,260.5 300.5,260.5C 300.5,262.5 300.5,264.5 300.5,266.5C 299.5,266.5 298.5,266.5 297.5,266.5C 297.5,267.5 297.5,268.5 297.5,269.5C 296.5,269.5 295.5,269.5 294.5,269.5C 293.36,272.025 292.693,274.692 292.5,277.5C 291.5,277.5 290.5,277.5 289.5,277.5C 289.5,278.5 289.5,279.5 289.5,280.5C 288.5,280.5 287.5,280.5 286.5,280.5C 286.5,281.5 286.5,282.5 286.5,283.5C 285.5,283.5 284.5,283.5 283.5,283.5C 283.5,284.5 283.5,285.5 283.5,286.5C 282.5,286.5 281.5,286.5 280.5,286.5C 280.5,287.5 280.5,288.5 280.5,289.5C 278.5,289.5 276.5,289.5 274.5,289.5C 274.5,291.167 274.5,292.833 274.5,294.5C 272.833,294.5 271.167,294.5 269.5,294.5C 269.5,295.5 269.5,296.5 269.5,297.5C 268.5,297.5 267.5,297.5 266.5,297.5C 266.5,298.5 266.5,299.5 266.5,300.5C 265.5,300.5 264.5,300.5 263.5,300.5C 263.5,301.5 263.5,302.5 263.5,303.5C 261.5,303.5 259.5,303.5 257.5,303.5C 257.5,304.5 257.5,305.5 257.5,306.5C 255.5,306.5 253.5,306.5 251.5,306.5C 250.833,308.5 250.167,310.5 249.5,312.5C 247.5,312.5 245.5,312.5 243.5,312.5C 243.5,313.5 243.5,314.5 243.5,315.5C 238.889,316.485 234.222,317.152 229.5,317.5C 229.5,318.5 229.5,319.5 229.5,320.5C 225.5,320.5 221.5,320.5 217.5,320.5C 217.5,321.5 217.5,322.5 217.5,323.5C 216.5,323.5 215.5,323.5 214.5,323.5C 214.5,324.5 214.5,325.5 214.5,326.5C 205.833,326.5 197.167,326.5 188.5,326.5C 188.5,327.5 188.5,328.5 188.5,329.5C 181.833,329.5 175.167,329.5 168.5,329.5C 168.5,328.5 168.5,327.5 168.5,326.5C 166.833,326.5 165.167,326.5 163.5,326.5C 163.5,327.5 163.5,328.5 163.5,329.5C 161.5,329.5 159.5,329.5 157.5,329.5C 157.5,328.5 157.5,327.5 157.5,326.5C 152.5,326.5 147.5,326.5 142.5,326.5C 142.5,325.5 142.5,324.5 142.5,323.5C 138.833,323.5 135.167,323.5 131.5,323.5C 131.5,322.5 131.5,321.5 131.5,320.5C 129.5,320.5 127.5,320.5 125.5,320.5C 125.5,319.5 125.5,318.5 125.5,317.5C 119.854,316.69 114.187,316.024 108.5,315.5C 108.5,314.5 108.5,313.5 108.5,312.5C 107.5,312.5 106.5,312.5 105.5,312.5C 105.5,311.5 105.5,310.5 105.5,309.5C 102.833,309.5 100.167,309.5 97.5,309.5C 97.5,308.5 97.5,307.5 97.5,306.5C 96.5,306.5 95.5,306.5 94.5,306.5C 94.5,305.5 94.5,304.5 94.5,303.5C 93.5,303.5 92.5,303.5 91.5,303.5C 91.5,302.5 91.5,301.5 91.5,300.5C 89.5,300.5 87.5,300.5 85.5,300.5C 85.5,299.5 85.5,298.5 85.5,297.5C 84.5,297.5 83.5,297.5 82.5,297.5C 82.5,296.5 82.5,295.5 82.5,294.5C 79.9752,293.36 77.3085,292.693 74.5,292.5C 74.5,291.5 74.5,290.5 74.5,289.5C 73.5,289.5 72.5,289.5 71.5,289.5C 71.5,287.5 71.5,285.5 71.5,283.5C 69.5,283.5 67.5,283.5 65.5,283.5C 65.5,282.5 65.5,281.5 65.5,280.5C 64.5,280.5 63.5,280.5 62.5,280.5C 62.5,278.5 62.5,276.5 62.5,274.5C 56.5,275.167 53.8333,272.5 54.5,266.5C 53.5,266.5 52.5,266.5 51.5,266.5C 51.5,265.5 51.5,264.5 51.5,263.5C 50.5,263.5 49.5,263.5 48.5,263.5C 48.5,262.5 48.5,261.5 48.5,260.5C 47.5,260.5 46.5,260.5 45.5,260.5C 45.5,257.5 45.5,254.5 45.5,251.5C 43.5,250.833 41.5,250.167 39.5,249.5C 39.5,246.5 39.5,243.5 39.5,240.5C 38.5,240.5 37.5,240.5 36.5,240.5C 36.5,239.5 36.5,238.5 36.5,237.5C 35.5,237.5 34.5,237.5 33.5,237.5C 33.1518,232.778 32.4851,228.111 31.5,223.5C 30.5,223.5 29.5,223.5 28.5,223.5C 28.5,219.5 28.5,215.5 28.5,211.5C 27.5,211.5 26.5,211.5 25.5,211.5C 25.5,206.833 25.5,202.167 25.5,197.5C 24.5,197.5 23.5,197.5 22.5,197.5C 22.5,183.167 22.5,168.833 22.5,154.5C 23.5,154.5 24.5,154.5 25.5,154.5C 25.5,150.5 25.5,146.5 25.5,142.5C 26.5,142.5 27.5,142.5 28.5,142.5C 28.5,137.833 28.5,133.167 28.5,128.5C 29.5,128.5 30.5,128.5 31.5,128.5C 31.2315,123.653 31.8982,118.986 33.5,114.5C 34.5,114.5 35.5,114.5 36.5,114.5C 36.5,111.5 36.5,108.5 36.5,105.5C 37.5,105.5 38.5,105.5 39.5,105.5C 39.5,104.5 39.5,103.5 39.5,102.5C 40.5,102.5 41.5,102.5 42.5,102.5C 42.5,100.833 42.5,99.1667 42.5,97.5C 43.5,97.5 44.5,97.5 45.5,97.5C 45.5,95.5 45.5,93.5 45.5,91.5C 46.5,91.5 47.5,91.5 48.5,91.5C 48.5,90.5 48.5,89.5 48.5,88.5C 49.5,88.5 50.5,88.5 51.5,88.5C 51.5,86.5 51.5,84.5 51.5,82.5C 52.5,82.5 53.5,82.5 54.5,82.5C 55.1667,80.5 55.8333,78.5 56.5,76.5C 57.5,76.5 58.5,76.5 59.5,76.5C 59.5,74.8333 59.5,73.1667 59.5,71.5C 61.5,71.5 63.5,71.5 65.5,71.5C 65.5,70.5 65.5,69.5 65.5,68.5C 66.5,68.5 67.5,68.5 68.5,68.5C 68.5,66.5 68.5,64.5 68.5,62.5C 70.5,62.5 72.5,62.5 74.5,62.5C 75.1667,60.5 75.8333,58.5 76.5,56.5C 78.5,55.8333 80.5,55.1667 82.5,54.5C 82.5,53.5 82.5,52.5 82.5,51.5C 84.5,51.5 86.5,51.5 88.5,51.5C 88.5,50.5 88.5,49.5 88.5,48.5C 89.5,48.5 90.5,48.5 91.5,48.5C 91.5,47.5 91.5,46.5 91.5,45.5C 93.5,45.5 95.5,45.5 97.5,45.5C 98.1667,43.5 98.8333,41.5 99.5,39.5C 101.5,39.5 103.5,39.5 105.5,39.5C 105.5,38.5 105.5,37.5 105.5,36.5C 107.5,36.5 109.5,36.5 111.5,36.5C 111.5,35.5 111.5,34.5 111.5,33.5C 115.986,31.8982 120.653,31.2315 125.5,31.5C 125.5,30.5 125.5,29.5 125.5,28.5C 129.5,28.5 133.5,28.5 137.5,28.5C 137.5,27.5 137.5,26.5 137.5,25.5C 140.167,25.5 142.833,25.5 145.5,25.5C 145.5,24.5 145.5,23.5 145.5,22.5C 152.167,22.5 158.833,22.5 165.5,22.5C 165.5,21.5 165.5,20.5 165.5,19.5C 166.5,19.5 167.5,19.5 168.5,19.5C 168.5,20.5 168.5,21.5 168.5,22.5C 171.5,22.5 174.5,22.5 177.5,22.5C 177.5,21.5 177.5,20.5 177.5,19.5C 178.5,19.5 179.5,19.5 180.5,19.5C 180.5,20.5 180.5,21.5 180.5,22.5C 189.833,22.5 199.167,22.5 208.5,22.5C 208.5,23.5 208.5,24.5 208.5,25.5C 212.5,25.5 216.5,25.5 220.5,25.5C 220.5,26.5 220.5,27.5 220.5,28.5C 221.5,28.5 222.5,28.5 223.5,28.5C 223.5,29.5 223.5,30.5 223.5,31.5C 229.252,31.5771 234.919,32.2438 240.5,33.5C 240.5,34.5 240.5,35.5 240.5,36.5C 242.5,36.5 244.5,36.5 246.5,36.5C 246.5,37.5 246.5,38.5 246.5,39.5C 248.167,39.5 249.833,39.5 251.5,39.5C 251.5,40.5 251.5,41.5 251.5,42.5C 253.5,42.5 255.5,42.5 257.5,42.5C 257.5,43.5 257.5,44.5 257.5,45.5C 258.5,45.5 259.5,45.5 260.5,45.5C 260.5,46.5 260.5,47.5 260.5,48.5C 262.5,48.5 264.5,48.5 266.5,48.5C 266.5,49.5 266.5,50.5 266.5,51.5C 267.5,51.5 268.5,51.5 269.5,51.5C 269.5,52.5 269.5,53.5 269.5,54.5C 272.025,55.64 274.692,56.3067 277.5,56.5C 277.5,58.5 277.5,60.5 277.5,62.5C 278.5,62.5 279.5,62.5 280.5,62.5C 280.5,63.5 280.5,64.5 280.5,65.5C 282.5,65.5 284.5,65.5 286.5,65.5C 286.5,66.5 286.5,67.5 286.5,68.5C 287.5,68.5 288.5,68.5 289.5,68.5C 289.5,70.5 289.5,72.5 289.5,74.5C 292.5,74.8333 294.167,76.5 294.5,79.5C 295.5,79.5 296.5,79.5 297.5,79.5C 297.5,80.5 297.5,81.5 297.5,82.5C 298.5,82.5 299.5,82.5 300.5,82.5C 300.5,84.5 300.5,86.5 300.5,88.5C 301.5,88.5 302.5,88.5 303.5,88.5C 303.5,89.5 303.5,90.5 303.5,91.5C 304.5,91.5 305.5,91.5 306.5,91.5C 306.5,93.5 306.5,95.5 306.5,97.5C 308.5,98.1667 310.5,98.8333 312.5,99.5C 312.5,102.5 312.5,105.5 312.5,108.5C 313.5,108.5 314.5,108.5 315.5,108.5C 317.102,112.986 317.768,117.653 317.5,122.5C 318.5,122.5 319.5,122.5 320.5,122.5C 320.5,123.5 320.5,124.5 320.5,125.5C 321.5,125.5 322.5,125.5 323.5,125.5C 323.5,129.5 323.5,133.5 323.5,137.5C 324.5,137.5 325.5,137.5 326.5,137.5C 326.5,142.167 326.5,146.833 326.5,151.5C 327.5,151.5 328.5,151.5 329.5,151.5C 329.5,152.5 329.5,153.5 329.5,154.5C 328.5,154.5 327.5,154.5 326.5,154.5C 326.5,156.5 326.5,158.5 326.5,160.5C 327.5,160.5 328.5,160.5 329.5,160.5C 329.5,171.833 329.5,183.167 329.5,194.5 Z M 249.5,22.5 C 248.5,22.5 247.5,22.5 246.5,22.5C 246.5,21.5 246.5,20.5 246.5,19.5C 247.5,19.5 248.5,19.5 249.5,19.5C 249.5,20.5 249.5,21.5 249.5,22.5 Z M 249.5,22.5 C 251.048,22.8212 251.715,23.8212 251.5,25.5C 252.5,25.5 253.5,25.5 254.5,25.5C 254.5,29.1667 254.5,32.8333 254.5,36.5C 253.5,36.5 252.5,36.5 251.5,36.5C 249.898,32.0138 249.232,27.3471 249.5,22.5 Z M 91.5,25.5 C 95.1667,25.5 98.8333,25.5 102.5,25.5C 102.5,26.5 102.5,27.5 102.5,28.5C 104.5,28.5 106.5,28.5 108.5,28.5C 108.5,29.5 108.5,30.5 108.5,31.5C 106.8,31.6261 105.3,32.2927 104,33.5C 100.044,31.7208 95.8774,31.0541 91.5,31.5C 91.5,29.5 91.5,27.5 91.5,25.5 Z M 260.5,28.5 C 259.5,28.5 258.5,28.5 257.5,28.5C 257.5,27.5 257.5,26.5 257.5,25.5C 258.5,25.5 259.5,25.5 260.5,25.5C 260.5,26.5 260.5,27.5 260.5,28.5 Z M 260.5,28.5 C 261.5,28.5 262.5,28.5 263.5,28.5C 263.5,29.5 263.5,30.5 263.5,31.5C 264.5,31.5 265.5,31.5 266.5,31.5C 266.5,35.1667 266.5,38.8333 266.5,42.5C 265.5,42.5 264.5,42.5 263.5,42.5C 263.5,41.5 263.5,40.5 263.5,39.5C 262.5,39.5 261.5,39.5 260.5,39.5C 260.5,35.8333 260.5,32.1667 260.5,28.5 Z M 82.5,31.5 C 86.318,33.013 90.318,33.6796 94.5,33.5C 94.5,34.5 94.5,35.5 94.5,36.5C 95.5,36.5 96.5,36.5 97.5,36.5C 97.5,37.5 97.5,38.5 97.5,39.5C 92.5,39.5 87.5,39.5 82.5,39.5C 82.5,38.5 82.5,37.5 82.5,36.5C 81.5,36.5 80.5,36.5 79.5,36.5C 79.5,35.5 79.5,34.5 79.5,33.5C 81.1788,33.7148 82.1788,33.0481 82.5,31.5 Z M 272.5,33.5 C 274.048,33.8212 274.715,34.8212 274.5,36.5C 275.5,36.5 276.5,36.5 277.5,36.5C 277.5,41.5 277.5,46.5 277.5,51.5C 276.5,51.5 275.5,51.5 274.5,51.5C 272.791,45.6719 272.124,39.6719 272.5,33.5 Z M 71.5,39.5 C 72.5,39.5 73.5,39.5 74.5,39.5C 74.5,40.5 74.5,41.5 74.5,42.5C 78.1667,42.5 81.8333,42.5 85.5,42.5C 85.5,43.5 85.5,44.5 85.5,45.5C 84.5,45.5 83.5,45.5 82.5,45.5C 82.5,46.5 82.5,47.5 82.5,48.5C 78.8333,48.5 75.1667,48.5 71.5,48.5C 71.5,47.5 71.5,46.5 71.5,45.5C 70.5,45.5 69.5,45.5 68.5,45.5C 68.5,44.5 68.5,43.5 68.5,42.5C 69.5,42.5 70.5,42.5 71.5,42.5C 71.5,41.5 71.5,40.5 71.5,39.5 Z M 283.5,45.5 C 284.5,45.5 285.5,45.5 286.5,45.5C 286.5,46.5 286.5,47.5 286.5,48.5C 287.5,48.5 288.5,48.5 289.5,48.5C 289.5,53.1667 289.5,57.8333 289.5,62.5C 288.5,62.5 287.5,62.5 286.5,62.5C 286.5,61.5 286.5,60.5 286.5,59.5C 285.5,59.5 284.5,59.5 283.5,59.5C 283.5,54.8333 283.5,50.1667 283.5,45.5 Z M 56.5,51.5 C 62.5,51.5 68.5,51.5 74.5,51.5C 74.5,52.5 74.5,53.5 74.5,54.5C 67.9713,56.5785 61.3046,56.9119 54.5,55.5C 55.8532,54.4763 56.5198,53.143 56.5,51.5 Z M 294.5,54.5 C 296.5,55.1667 298.5,55.8333 300.5,56.5C 300.5,60.5 300.5,64.5 300.5,68.5C 299.5,68.5 298.5,68.5 297.5,68.5C 297.5,69.5 297.5,70.5 297.5,71.5C 296.5,71.5 295.5,71.5 294.5,71.5C 293.632,69.1033 292.965,66.6033 292.5,64C 293.305,60.8336 293.972,57.6669 294.5,54.5 Z M 51.5,59.5 C 54.1667,59.5 56.8333,59.5 59.5,59.5C 59.5,60.5 59.5,61.5 59.5,62.5C 60.5,62.5 61.5,62.5 62.5,62.5C 62.5,63.5 62.5,64.5 62.5,65.5C 61.5,65.5 60.5,65.5 59.5,65.5C 59.5,66.5 59.5,67.5 59.5,68.5C 58.5,68.5 57.5,68.5 56.5,68.5C 56.5,67.5 56.5,66.5 56.5,65.5C 53.8333,65.5 51.1667,65.5 48.5,65.5C 48.5,64.5 48.5,63.5 48.5,62.5C 49.5,62.5 50.5,62.5 51.5,62.5C 51.5,61.5 51.5,60.5 51.5,59.5 Z M 223.5,68.5 C 223.5,67.5 223.5,66.5 223.5,65.5C 224.5,65.5 225.5,65.5 226.5,65.5C 226.5,66.5 226.5,67.5 226.5,68.5C 225.5,68.5 224.5,68.5 223.5,68.5 Z M 303.5,65.5 C 305.5,65.5 307.5,65.5 309.5,65.5C 309.5,70.1667 309.5,74.8333 309.5,79.5C 308.5,79.5 307.5,79.5 306.5,79.5C 306.5,80.5 306.5,81.5 306.5,82.5C 305.5,82.5 304.5,82.5 303.5,82.5C 303.5,81.5 303.5,80.5 303.5,79.5C 302.5,79.5 301.5,79.5 300.5,79.5C 300.5,77.8333 300.5,76.1667 300.5,74.5C 301.5,74.5 302.5,74.5 303.5,74.5C 303.5,71.5 303.5,68.5 303.5,65.5 Z M 42.5,71.5 C 46.5,71.5 50.5,71.5 54.5,71.5C 54.5,72.5 54.5,73.5 54.5,74.5C 49.6786,76.1353 44.6786,76.802 39.5,76.5C 39.5,77.5 39.5,78.5 39.5,79.5C 38.5,79.5 37.5,79.5 36.5,79.5C 36.5,77.8333 36.5,76.1667 36.5,74.5C 38.5,74.5 40.5,74.5 42.5,74.5C 42.5,73.5 42.5,72.5 42.5,71.5 Z M 312.5,76.5 C 313.5,76.5 314.5,76.5 315.5,76.5C 316.368,78.8967 317.035,81.3967 317.5,84C 316.51,87.4606 315.843,90.9606 315.5,94.5C 314.5,94.5 313.5,94.5 312.5,94.5C 312.5,93.5 312.5,92.5 312.5,91.5C 311.5,91.5 310.5,91.5 309.5,91.5C 309.5,89.5 309.5,87.5 309.5,85.5C 310.5,85.5 311.5,85.5 312.5,85.5C 312.5,82.5 312.5,79.5 312.5,76.5 Z M 33.5,82.5 C 37.5,82.5 41.5,82.5 45.5,82.5C 45.5,84.5 45.5,86.5 45.5,88.5C 44.5,88.5 43.5,88.5 42.5,88.5C 42.5,89.5 42.5,90.5 42.5,91.5C 37.8333,91.5 33.1667,91.5 28.5,91.5C 28.5,90.5 28.5,89.5 28.5,88.5C 29.5,88.5 30.5,88.5 31.5,88.5C 32.1667,86.5 32.8333,84.5 33.5,82.5 Z M 320.5,88.5 C 321.5,88.5 322.5,88.5 323.5,88.5C 323.5,89.5 323.5,90.5 323.5,91.5C 324.5,91.5 325.5,91.5 326.5,91.5C 326.5,93.5 326.5,95.5 326.5,97.5C 325.5,97.5 324.5,97.5 323.5,97.5C 323.5,99.1667 323.5,100.833 323.5,102.5C 322.5,102.5 321.5,102.5 320.5,102.5C 320.5,104.5 320.5,106.5 320.5,108.5C 319.5,108.5 318.5,108.5 317.5,108.5C 317.5,103.833 317.5,99.1667 317.5,94.5C 318.5,94.5 319.5,94.5 320.5,94.5C 320.5,92.5 320.5,90.5 320.5,88.5 Z M 22.5,102.5 C 22.5,101.5 22.5,100.5 22.5,99.5C 25.9863,98.0475 29.653,97.3808 33.5,97.5C 33.5,96.5 33.5,95.5 33.5,94.5C 34.5,94.5 35.5,94.5 36.5,94.5C 36.5,96.1667 36.5,97.8333 36.5,99.5C 35.5,99.5 34.5,99.5 33.5,99.5C 33.5,100.5 33.5,101.5 33.5,102.5C 29.8333,102.5 26.1667,102.5 22.5,102.5 Z M 171.5,119.5 C 171.179,117.952 170.179,117.285 168.5,117.5C 167.5,117.5 166.5,117.5 165.5,117.5C 165.715,115.821 165.048,114.821 163.5,114.5C 162.5,114.5 161.5,114.5 160.5,114.5C 160.5,113.5 160.5,112.5 160.5,111.5C 159.5,111.5 158.5,111.5 157.5,111.5C 157.5,110.5 157.5,109.5 157.5,108.5C 160.167,108.5 162.833,108.5 165.5,108.5C 165.5,107.5 165.5,106.5 165.5,105.5C 166.5,105.5 167.5,105.5 168.5,105.5C 168.5,104.5 168.5,103.5 168.5,102.5C 170.5,102.5 172.5,102.5 174.5,102.5C 174.5,101.5 174.5,100.5 174.5,99.5C 175.5,99.5 176.5,99.5 177.5,99.5C 177.5,100.5 177.5,101.5 177.5,102.5C 179.5,102.5 181.5,102.5 183.5,102.5C 184.167,104.5 184.833,106.5 185.5,108.5C 188.5,108.5 191.5,108.5 194.5,108.5C 194.5,109.5 194.5,110.5 194.5,111.5C 193.5,111.5 192.5,111.5 191.5,111.5C 191.5,112.5 191.5,113.5 191.5,114.5C 189.5,114.5 187.5,114.5 185.5,114.5C 185.5,115.5 185.5,116.5 185.5,117.5C 180.933,118.736 176.266,119.402 171.5,119.5 Z M 22.5,102.5 C 22.5,103.5 22.5,104.5 22.5,105.5C 21.5,105.5 20.5,105.5 19.5,105.5C 19.5,104.5 19.5,103.5 19.5,102.5C 20.5,102.5 21.5,102.5 22.5,102.5 Z M 326.5,102.5 C 327.5,102.5 328.5,102.5 329.5,102.5C 329.5,103.5 329.5,104.5 329.5,105.5C 330.5,105.5 331.5,105.5 332.5,105.5C 332.5,107.5 332.5,109.5 332.5,111.5C 331.5,111.5 330.5,111.5 329.5,111.5C 329.5,113.5 329.5,115.5 329.5,117.5C 327.5,118.167 325.5,118.833 323.5,119.5C 323.5,116.833 323.5,114.167 323.5,111.5C 324.5,111.5 325.5,111.5 326.5,111.5C 326.5,108.5 326.5,105.5 326.5,102.5 Z M 19.5,108.5 C 23.5,108.5 27.5,108.5 31.5,108.5C 31.5,110.5 31.5,112.5 31.5,114.5C 28.5,114.5 25.5,114.5 22.5,114.5C 22.5,115.5 22.5,116.5 22.5,117.5C 20.5,117.5 18.5,117.5 16.5,117.5C 16.5,116.5 16.5,115.5 16.5,114.5C 17.5,114.5 18.5,114.5 19.5,114.5C 19.5,112.5 19.5,110.5 19.5,108.5 Z M 332.5,117.5 C 334.5,118.167 336.5,118.833 338.5,119.5C 338.5,120.5 338.5,121.5 338.5,122.5C 337.5,122.5 336.5,122.5 335.5,122.5C 335.5,124.5 335.5,126.5 335.5,128.5C 334.5,128.5 333.5,128.5 332.5,128.5C 332.5,129.5 332.5,130.5 332.5,131.5C 330.5,131.5 328.5,131.5 326.5,131.5C 326.5,129.5 326.5,127.5 326.5,125.5C 327.5,125.5 328.5,125.5 329.5,125.5C 329.5,124.5 329.5,123.5 329.5,122.5C 330.5,122.5 331.5,122.5 332.5,122.5C 332.5,120.833 332.5,119.167 332.5,117.5 Z M 22.5,119.5 C 24.5,119.5 26.5,119.5 28.5,119.5C 28.5,120.5 28.5,121.5 28.5,122.5C 27.5,122.5 26.5,122.5 25.5,122.5C 25.5,123.5 25.5,124.5 25.5,125.5C 24.5,125.5 23.5,125.5 22.5,125.5C 22.5,126.5 22.5,127.5 22.5,128.5C 20.5,128.5 18.5,128.5 16.5,128.5C 16.5,129.5 16.5,130.5 16.5,131.5C 14.5,131.5 12.5,131.5 10.5,131.5C 10.5,129.5 10.5,127.5 10.5,125.5C 12.5,125.5 14.5,125.5 16.5,125.5C 16.5,124.5 16.5,123.5 16.5,122.5C 18.5,122.5 20.5,122.5 22.5,122.5C 22.5,121.5 22.5,120.5 22.5,119.5 Z M 137.5,122.5 C 139.167,122.5 140.833,122.5 142.5,122.5C 142.5,123.5 142.5,124.5 142.5,125.5C 144.5,125.5 146.5,125.5 148.5,125.5C 148.5,126.5 148.5,127.5 148.5,128.5C 150.5,128.5 152.5,128.5 154.5,128.5C 154.5,129.5 154.5,130.5 154.5,131.5C 155.5,131.5 156.5,131.5 157.5,131.5C 157.5,132.5 157.5,133.5 157.5,134.5C 159.5,134.5 161.5,134.5 163.5,134.5C 163.5,135.5 163.5,136.5 163.5,137.5C 165.167,137.5 166.833,137.5 168.5,137.5C 168.5,138.5 168.5,139.5 168.5,140.5C 170.897,141.368 173.397,142.035 176,142.5C 178.603,142.035 181.103,141.368 183.5,140.5C 183.5,139.5 183.5,138.5 183.5,137.5C 185.167,137.5 186.833,137.5 188.5,137.5C 188.5,136.5 188.5,135.5 188.5,134.5C 190.5,134.5 192.5,134.5 194.5,134.5C 194.5,133.5 194.5,132.5 194.5,131.5C 195.5,131.5 196.5,131.5 197.5,131.5C 197.5,130.5 197.5,129.5 197.5,128.5C 199.5,128.5 201.5,128.5 203.5,128.5C 203.5,127.5 203.5,126.5 203.5,125.5C 205.167,125.5 206.833,125.5 208.5,125.5C 208.5,124.5 208.5,123.5 208.5,122.5C 211.5,122.5 214.5,122.5 217.5,122.5C 217.5,123.5 217.5,124.5 217.5,125.5C 219.5,125.5 221.5,125.5 223.5,125.5C 223.5,126.5 223.5,127.5 223.5,128.5C 224.5,128.5 225.5,128.5 226.5,128.5C 226.5,129.5 226.5,130.5 226.5,131.5C 228.167,131.5 229.833,131.5 231.5,131.5C 231.5,132.5 231.5,133.5 231.5,134.5C 232.5,134.5 233.5,134.5 234.5,134.5C 234.5,135.5 234.5,136.5 234.5,137.5C 235.5,137.5 236.5,137.5 237.5,137.5C 237.5,161.167 237.5,184.833 237.5,208.5C 236.5,208.5 235.5,208.5 234.5,208.5C 234.5,209.5 234.5,210.5 234.5,211.5C 233.5,211.5 232.5,211.5 231.5,211.5C 231.5,212.5 231.5,213.5 231.5,214.5C 229.833,214.5 228.167,214.5 226.5,214.5C 226.5,215.5 226.5,216.5 226.5,217.5C 225.5,217.5 224.5,217.5 223.5,217.5C 223.5,218.5 223.5,219.5 223.5,220.5C 221.5,220.5 219.5,220.5 217.5,220.5C 217.5,221.5 217.5,222.5 217.5,223.5C 215.5,223.5 213.5,223.5 211.5,223.5C 211.5,224.5 211.5,225.5 211.5,226.5C 210.5,226.5 209.5,226.5 208.5,226.5C 208.5,227.5 208.5,228.5 208.5,229.5C 204.879,230.373 201.212,231.039 197.5,231.5C 197.5,232.5 197.5,233.5 197.5,234.5C 195.5,234.5 193.5,234.5 191.5,234.5C 191.5,235.5 191.5,236.5 191.5,237.5C 190.5,237.5 189.5,237.5 188.5,237.5C 188.5,238.5 188.5,239.5 188.5,240.5C 186.833,240.5 185.167,240.5 183.5,240.5C 183.5,241.5 183.5,242.5 183.5,243.5C 181.5,243.5 179.5,243.5 177.5,243.5C 177.5,244.5 177.5,245.5 177.5,246.5C 176.5,246.5 175.5,246.5 174.5,246.5C 174.5,245.5 174.5,244.5 174.5,243.5C 173.5,243.5 172.5,243.5 171.5,243.5C 171.5,242.5 171.5,241.5 171.5,240.5C 168.833,240.5 166.167,240.5 163.5,240.5C 163.5,239.5 163.5,238.5 163.5,237.5C 162.5,237.5 161.5,237.5 160.5,237.5C 160.5,236.5 160.5,235.5 160.5,234.5C 158.5,234.5 156.5,234.5 154.5,234.5C 154.5,233.5 154.5,232.5 154.5,231.5C 151.336,231.442 148.336,230.776 145.5,229.5C 145.5,228.5 145.5,227.5 145.5,226.5C 143.833,226.5 142.167,226.5 140.5,226.5C 140.5,225.5 140.5,224.5 140.5,223.5C 138.5,223.5 136.5,223.5 134.5,223.5C 134.5,222.5 134.5,221.5 134.5,220.5C 133.5,220.5 132.5,220.5 131.5,220.5C 131.5,219.5 131.5,218.5 131.5,217.5C 129.5,217.5 127.5,217.5 125.5,217.5C 125.5,216.5 125.5,215.5 125.5,214.5C 123.5,214.5 121.5,214.5 119.5,214.5C 119.5,213.5 119.5,212.5 119.5,211.5C 117.833,211.5 116.167,211.5 114.5,211.5C 114.5,186.833 114.5,162.167 114.5,137.5C 115.5,137.5 116.5,137.5 117.5,137.5C 117.5,136.5 117.5,135.5 117.5,134.5C 119.167,134.5 120.833,134.5 122.5,134.5C 122.5,133.5 122.5,132.5 122.5,131.5C 123.5,131.5 124.5,131.5 125.5,131.5C 125.5,130.5 125.5,129.5 125.5,128.5C 127.5,128.5 129.5,128.5 131.5,128.5C 131.5,127.5 131.5,126.5 131.5,125.5C 133.5,125.5 135.5,125.5 137.5,125.5C 137.5,124.5 137.5,123.5 137.5,122.5 Z M 338.5,128.5 C 339.765,129.514 340.431,131.014 340.5,133C 339.695,136.166 339.028,139.333 338.5,142.5C 337.5,142.5 336.5,142.5 335.5,142.5C 335.5,143.5 335.5,144.5 335.5,145.5C 334.5,145.5 333.5,145.5 332.5,145.5C 332.5,144.5 332.5,143.5 332.5,142.5C 328.5,141.833 328.5,141.167 332.5,140.5C 332.5,139.5 332.5,138.5 332.5,137.5C 333.5,137.5 334.5,137.5 335.5,137.5C 335.5,136.5 335.5,135.5 335.5,134.5C 336.5,134.5 337.5,134.5 338.5,134.5C 338.5,132.5 338.5,130.5 338.5,128.5 Z M 16.5,134.5 C 18.5,134.5 20.5,134.5 22.5,134.5C 22.5,136.5 22.5,138.5 22.5,140.5C 19.6644,141.776 16.6644,142.442 13.5,142.5C 13.5,143.5 13.5,144.5 13.5,145.5C 11.8333,145.5 10.1667,145.5 8.5,145.5C 9.64002,142.975 10.3067,140.308 10.5,137.5C 12.5,137.5 14.5,137.5 16.5,137.5C 16.5,136.5 16.5,135.5 16.5,134.5 Z M 340.5,145.5 C 341.5,145.5 342.5,145.5 343.5,145.5C 343.5,148.5 343.5,151.5 343.5,154.5C 341.833,154.5 340.167,154.5 338.5,154.5C 338.5,156.5 338.5,158.5 338.5,160.5C 337.5,160.5 336.5,160.5 335.5,160.5C 335.5,159.5 335.5,158.5 335.5,157.5C 334.5,157.5 333.5,157.5 332.5,157.5C 332.5,156.5 332.5,155.5 332.5,154.5C 333.5,154.5 334.5,154.5 335.5,154.5C 335.5,153.5 335.5,152.5 335.5,151.5C 336.5,151.5 337.5,151.5 338.5,151.5C 339.167,149.5 339.833,147.5 340.5,145.5 Z M 13.5,148.5 C 15.5,148.5 17.5,148.5 19.5,148.5C 19.5,150.5 19.5,152.5 19.5,154.5C 17.5,154.5 15.5,154.5 13.5,154.5C 13.5,155.5 13.5,156.5 13.5,157.5C 12.5,157.5 11.5,157.5 10.5,157.5C 9.83333,159.5 9.16667,161.5 8.5,163.5C 7.5,163.5 6.5,163.5 5.5,163.5C 5.5,161.5 5.5,159.5 5.5,157.5C 6.5,157.5 7.5,157.5 8.5,157.5C 8.5,155.5 8.5,153.5 8.5,151.5C 10.1667,151.5 11.8333,151.5 13.5,151.5C 13.5,150.5 13.5,149.5 13.5,148.5 Z M 16.5,160.5 C 17.5,160.5 18.5,160.5 19.5,160.5C 19.5,162.167 19.5,163.833 19.5,165.5C 18.5,165.5 17.5,165.5 16.5,165.5C 16.5,166.5 16.5,167.5 16.5,168.5C 15.5,168.5 14.5,168.5 13.5,168.5C 13.5,169.5 13.5,170.5 13.5,171.5C 12.5,171.5 11.5,171.5 10.5,171.5C 9.83333,173.5 9.16667,175.5 8.5,177.5C 7.5,177.5 6.5,177.5 5.5,177.5C 5.5,174.5 5.5,171.5 5.5,168.5C 6.5,168.5 7.5,168.5 8.5,168.5C 9.50633,164.47 12.173,162.803 16.5,163.5C 16.5,162.5 16.5,161.5 16.5,160.5 Z M 340.5,160.5 C 342.5,160.5 344.5,160.5 346.5,160.5C 346.5,162.167 346.5,163.833 346.5,165.5C 345.5,165.5 344.5,165.5 343.5,165.5C 343.5,166.5 343.5,167.5 343.5,168.5C 342.5,168.5 341.5,168.5 340.5,168.5C 339.833,170.5 339.167,172.5 338.5,174.5C 337.5,174.5 336.5,174.5 335.5,174.5C 335.5,171.5 335.5,168.5 335.5,165.5C 338.5,165.167 340.167,163.5 340.5,160.5 Z M 343.5,174.5 C 344.5,174.5 345.5,174.5 346.5,174.5C 346.5,176.5 346.5,178.5 346.5,180.5C 345.5,180.5 344.5,180.5 343.5,180.5C 343.5,181.5 343.5,182.5 343.5,183.5C 340.5,183.833 338.833,185.5 338.5,188.5C 337.5,188.5 336.5,188.5 335.5,188.5C 335.5,185.833 335.5,183.167 335.5,180.5C 336.5,180.5 337.5,180.5 338.5,180.5C 338.5,179.5 338.5,178.5 338.5,177.5C 340.167,177.5 341.833,177.5 343.5,177.5C 343.5,176.5 343.5,175.5 343.5,174.5 Z M 10.5,177.5 C 13.5,177.5 16.5,177.5 19.5,177.5C 19.5,178.5 19.5,179.5 19.5,180.5C 18.5,180.5 17.5,180.5 16.5,180.5C 16.5,181.5 16.5,182.5 16.5,183.5C 14.5,184.167 12.5,184.833 10.5,185.5C 9.83333,187.5 9.16667,189.5 8.5,191.5C 7.5,191.5 6.5,191.5 5.5,191.5C 5.5,189.5 5.5,187.5 5.5,185.5C 6.5,185.5 7.5,185.5 8.5,185.5C 8.69332,182.692 9.35998,180.025 10.5,177.5 Z M 16.5,188.5 C 17.5,188.5 18.5,188.5 19.5,188.5C 19.5,191.5 19.5,194.5 19.5,197.5C 17.5,197.5 15.5,197.5 13.5,197.5C 13.5,198.5 13.5,199.5 13.5,200.5C 12.5,200.5 11.5,200.5 10.5,200.5C 10.7989,202.604 10.4656,204.604 9.5,206.5C 9.16667,205 8.83333,203.5 8.5,202C 8.96533,199.397 9.63199,196.897 10.5,194.5C 11.5,194.5 12.5,194.5 13.5,194.5C 13.5,193.5 13.5,192.5 13.5,191.5C 14.5,191.5 15.5,191.5 16.5,191.5C 16.5,190.5 16.5,189.5 16.5,188.5 Z M 343.5,191.5 C 343.5,190.5 343.5,189.5 343.5,188.5C 344.5,188.5 345.5,188.5 346.5,188.5C 346.5,189.5 346.5,190.5 346.5,191.5C 345.5,191.5 344.5,191.5 343.5,191.5 Z M 343.5,191.5 C 343.5,193.5 343.5,195.5 343.5,197.5C 341.833,197.5 340.167,197.5 338.5,197.5C 338.5,198.5 338.5,199.5 338.5,200.5C 337.5,200.5 336.5,200.5 335.5,200.5C 335.5,201.5 335.5,202.5 335.5,203.5C 334.5,203.5 333.5,203.5 332.5,203.5C 332.5,200.5 332.5,197.5 332.5,194.5C 334.5,194.5 336.5,194.5 338.5,194.5C 338.5,193.5 338.5,192.5 338.5,191.5C 340.167,191.5 341.833,191.5 343.5,191.5 Z M 303.5,200.5 C 304.5,200.5 305.5,200.5 306.5,200.5C 306.5,202.5 306.5,204.5 306.5,206.5C 305.5,206.5 304.5,206.5 303.5,206.5C 303.5,204.5 303.5,202.5 303.5,200.5 Z M 16.5,203.5 C 17.5,203.5 18.5,203.5 19.5,203.5C 19.5,207.167 19.5,210.833 19.5,214.5C 17.5,214.5 15.5,214.5 13.5,214.5C 13.5,216.5 13.5,218.5 13.5,220.5C 12.5,220.5 11.5,220.5 10.5,220.5C 10.5,217.5 10.5,214.5 10.5,211.5C 11.5,211.5 12.5,211.5 13.5,211.5C 13.5,209.833 13.5,208.167 13.5,206.5C 14.5,206.5 15.5,206.5 16.5,206.5C 16.5,205.5 16.5,204.5 16.5,203.5 Z M 340.5,203.5 C 341.5,203.5 342.5,203.5 343.5,203.5C 343.5,205.167 343.5,206.833 343.5,208.5C 342.5,208.5 341.5,208.5 340.5,208.5C 339.833,210.5 339.167,212.5 338.5,214.5C 335.5,214.5 332.5,214.5 329.5,214.5C 329.5,212.5 329.5,210.5 329.5,208.5C 333.212,208.039 336.879,207.373 340.5,206.5C 340.5,205.5 340.5,204.5 340.5,203.5 Z M 42.5,208.5 C 44.5,208.5 46.5,208.5 48.5,208.5C 48.5,209.5 48.5,210.5 48.5,211.5C 46.5,211.5 44.5,211.5 42.5,211.5C 42.5,210.5 42.5,209.5 42.5,208.5 Z M 19.5,217.5 C 21.5,217.5 23.5,217.5 25.5,217.5C 25.5,219.5 25.5,221.5 25.5,223.5C 24.5,223.5 23.5,223.5 22.5,223.5C 22.5,224.5 22.5,225.5 22.5,226.5C 21.5,226.5 20.5,226.5 19.5,226.5C 19.5,228.167 19.5,229.833 19.5,231.5C 17.5,231.5 15.5,231.5 13.5,231.5C 13.5,229.833 13.5,228.167 13.5,226.5C 14.5,226.5 15.5,226.5 16.5,226.5C 16.5,225.5 16.5,224.5 16.5,223.5C 17.5,223.5 18.5,223.5 19.5,223.5C 19.5,221.5 19.5,219.5 19.5,217.5 Z M 338.5,217.5 C 339.693,217.97 340.36,218.97 340.5,220.5C 339.796,222.535 339.129,224.535 338.5,226.5C 336.5,226.5 334.5,226.5 332.5,226.5C 332.5,227.5 332.5,228.5 332.5,229.5C 330.5,229.5 328.5,229.5 326.5,229.5C 326.5,227.5 326.5,225.5 326.5,223.5C 328.5,223.5 330.5,223.5 332.5,223.5C 332.5,222.5 332.5,221.5 332.5,220.5C 334.5,220.5 336.5,220.5 338.5,220.5C 338.5,219.5 338.5,218.5 338.5,217.5 Z M 300.5,229.5 C 299.5,229.5 298.5,229.5 297.5,229.5C 297.5,228.5 297.5,227.5 297.5,226.5C 298.5,226.5 299.5,226.5 300.5,226.5C 300.5,227.5 300.5,228.5 300.5,229.5 Z M 25.5,229.5 C 26.5,229.5 27.5,229.5 28.5,229.5C 28.5,233.167 28.5,236.833 28.5,240.5C 27.5,240.5 26.5,240.5 25.5,240.5C 25.5,242.5 25.5,244.5 25.5,246.5C 23.5,246.5 21.5,246.5 19.5,246.5C 19.5,243.5 19.5,240.5 19.5,237.5C 20.5,237.5 21.5,237.5 22.5,237.5C 22.5,236.5 22.5,235.5 22.5,234.5C 23.5,234.5 24.5,234.5 25.5,234.5C 25.5,232.833 25.5,231.167 25.5,229.5 Z M 320.5,240.5 C 320.5,239.5 320.5,238.5 320.5,237.5C 321.5,237.5 322.5,237.5 323.5,237.5C 323.5,236.5 323.5,235.5 323.5,234.5C 325.5,234.5 327.5,234.5 329.5,234.5C 329.5,233.5 329.5,232.5 329.5,231.5C 331.5,231.5 333.5,231.5 335.5,231.5C 335.5,233.5 335.5,235.5 335.5,237.5C 334.5,237.5 333.5,237.5 332.5,237.5C 332.5,238.5 332.5,239.5 332.5,240.5C 328.5,240.5 324.5,240.5 320.5,240.5 Z M 297.5,234.5 C 298.5,234.5 299.5,234.5 300.5,234.5C 300.5,235.5 300.5,236.5 300.5,237.5C 299.5,237.5 298.5,237.5 297.5,237.5C 297.5,236.5 297.5,235.5 297.5,234.5 Z M 320.5,240.5 C 320.5,241.5 320.5,242.5 320.5,243.5C 319.5,243.5 318.5,243.5 317.5,243.5C 317.5,242.5 317.5,241.5 317.5,240.5C 318.5,240.5 319.5,240.5 320.5,240.5 Z M 31.5,243.5 C 32.7868,244.871 33.4535,246.705 33.5,249C 32.7169,252.838 32.0502,256.671 31.5,260.5C 30.5,260.5 29.5,260.5 28.5,260.5C 28.5,255.833 28.5,251.167 28.5,246.5C 29.5,246.5 30.5,246.5 31.5,246.5C 31.5,245.5 31.5,244.5 31.5,243.5 Z M 289.5,249.5 C 287.5,249.5 285.5,249.5 283.5,249.5C 283.5,248.5 283.5,247.5 283.5,246.5C 285.5,246.5 287.5,246.5 289.5,246.5C 289.5,247.5 289.5,248.5 289.5,249.5 Z M 323.5,246.5 C 325.5,246.5 327.5,246.5 329.5,246.5C 329.5,247.5 329.5,248.5 329.5,249.5C 327.5,250.167 325.5,250.833 323.5,251.5C 323.5,252.5 323.5,253.5 323.5,254.5C 320.833,254.5 318.167,254.5 315.5,254.5C 315.5,252.833 315.5,251.167 315.5,249.5C 318.167,249.5 320.833,249.5 323.5,249.5C 323.5,248.5 323.5,247.5 323.5,246.5 Z M 289.5,249.5 C 291.781,249.077 293.448,249.744 294.5,251.5C 292.219,251.923 290.552,251.256 289.5,249.5 Z M 36.5,254.5 C 37.5,254.5 38.5,254.5 39.5,254.5C 39.5,255.5 39.5,256.5 39.5,257.5C 40.5,257.5 41.5,257.5 42.5,257.5C 42.5,259.5 42.5,261.5 42.5,263.5C 41.5,263.5 40.5,263.5 39.5,263.5C 39.5,266.5 39.5,269.5 39.5,272.5C 38.5,272.5 37.5,272.5 36.5,272.5C 36.5,271.5 36.5,270.5 36.5,269.5C 35.5,269.5 34.5,269.5 33.5,269.5C 33.5,267.5 33.5,265.5 33.5,263.5C 34.5,263.5 35.5,263.5 36.5,263.5C 36.5,260.5 36.5,257.5 36.5,254.5 Z M 274.5,254.5 C 275.5,254.5 276.5,254.5 277.5,254.5C 277.5,256.5 277.5,258.5 277.5,260.5C 276.5,260.5 275.5,260.5 274.5,260.5C 274.5,258.5 274.5,256.5 274.5,254.5 Z M 286.5,263.5 C 284.5,263.5 282.5,263.5 280.5,263.5C 280.5,261.5 280.5,259.5 280.5,257.5C 281.5,257.5 282.5,257.5 283.5,257.5C 283.5,258.5 283.5,259.5 283.5,260.5C 284.5,260.5 285.5,260.5 286.5,260.5C 286.5,261.5 286.5,262.5 286.5,263.5 Z M 317.5,257.5 C 319.5,257.5 321.5,257.5 323.5,257.5C 323.5,258.5 323.5,259.5 323.5,260.5C 322.5,260.5 321.5,260.5 320.5,260.5C 320.5,262.5 320.5,264.5 320.5,266.5C 315.833,266.5 311.167,266.5 306.5,266.5C 306.5,265.5 306.5,264.5 306.5,263.5C 307.5,263.5 308.5,263.5 309.5,263.5C 309.5,262.5 309.5,261.5 309.5,260.5C 312.167,260.5 314.833,260.5 317.5,260.5C 317.5,259.5 317.5,258.5 317.5,257.5 Z M 45.5,266.5 C 46.5,266.5 47.5,266.5 48.5,266.5C 48.5,268.5 48.5,270.5 48.5,272.5C 52.5,273.167 52.5,273.833 48.5,274.5C 48.5,278.5 48.5,282.5 48.5,286.5C 47.5,286.5 46.5,286.5 45.5,286.5C 45.5,284.5 45.5,282.5 45.5,280.5C 44.5,280.5 43.5,280.5 42.5,280.5C 42.5,277.833 42.5,275.167 42.5,272.5C 43.5,272.5 44.5,272.5 45.5,272.5C 45.5,270.5 45.5,268.5 45.5,266.5 Z M 272.5,269.5 C 271.5,269.5 270.5,269.5 269.5,269.5C 269.5,268.5 269.5,267.5 269.5,266.5C 270.5,266.5 271.5,266.5 272.5,266.5C 272.5,267.5 272.5,268.5 272.5,269.5 Z M 260.5,269.5 C 261.5,269.5 262.5,269.5 263.5,269.5C 263.5,270.5 263.5,271.5 263.5,272.5C 262.5,272.5 261.5,272.5 260.5,272.5C 260.5,271.5 260.5,270.5 260.5,269.5 Z M 272.5,269.5 C 274.048,269.821 274.715,270.821 274.5,272.5C 272.952,272.179 272.285,271.179 272.5,269.5 Z M 300.5,272.5 C 305.544,272.173 310.544,272.506 315.5,273.5C 314.675,274.386 313.675,274.719 312.5,274.5C 312.5,275.5 312.5,276.5 312.5,277.5C 307.5,277.5 302.5,277.5 297.5,277.5C 297.5,276.5 297.5,275.5 297.5,274.5C 299.179,274.715 300.179,274.048 300.5,272.5 Z M 85.5,277.5 C 85.5,276.5 85.5,275.5 85.5,274.5C 86.5,274.5 87.5,274.5 88.5,274.5C 88.5,275.5 88.5,276.5 88.5,277.5C 87.5,277.5 86.5,277.5 85.5,277.5 Z M 254.5,274.5 C 255.5,274.5 256.5,274.5 257.5,274.5C 257.5,275.5 257.5,276.5 257.5,277.5C 257.5,276.5 257.5,275.5 257.5,274.5C 256.5,274.5 255.5,274.5 254.5,274.5 Z M 54.5,277.5 C 56.0481,277.821 56.7148,278.821 56.5,280.5C 57.5,280.5 58.5,280.5 59.5,280.5C 59.5,282.5 59.5,284.5 59.5,286.5C 58.5,286.5 57.5,286.5 56.5,286.5C 56.8134,289.247 56.48,291.914 55.5,294.5C 54.5481,292.955 54.2148,291.288 54.5,289.5C 53.5,289.5 52.5,289.5 51.5,289.5C 51.5,288.5 51.5,287.5 51.5,286.5C 52.5,286.5 53.5,286.5 54.5,286.5C 54.5,283.5 54.5,280.5 54.5,277.5 Z M 85.5,277.5 C 85.5,278.5 85.5,279.5 85.5,280.5C 84.5,280.5 83.5,280.5 82.5,280.5C 82.5,279.5 82.5,278.5 82.5,277.5C 83.5,277.5 84.5,277.5 85.5,277.5 Z M 257.5,277.5 C 258.5,277.5 259.5,277.5 260.5,277.5C 260.5,279.5 260.5,281.5 260.5,283.5C 259.5,283.5 258.5,283.5 257.5,283.5C 257.5,281.5 257.5,279.5 257.5,277.5 Z M 269.5,280.5 C 268.5,280.5 267.5,280.5 266.5,280.5C 266.5,279.5 266.5,278.5 266.5,277.5C 267.5,277.5 268.5,277.5 269.5,277.5C 269.5,278.5 269.5,279.5 269.5,280.5 Z M 249.5,280.5 C 251.048,280.821 251.715,281.821 251.5,283.5C 250.833,283.5 250.167,283.5 249.5,283.5C 249.5,282.5 249.5,281.5 249.5,280.5 Z M 249.5,283.5 C 249.5,284.5 249.5,285.5 249.5,286.5C 248.5,286.5 247.5,286.5 246.5,286.5C 246.5,285.5 246.5,284.5 246.5,283.5C 247.5,283.5 248.5,283.5 249.5,283.5 Z M 251.5,283.5 C 252.5,283.5 253.5,283.5 254.5,283.5C 254.5,284.5 254.5,285.5 254.5,286.5C 254.5,285.5 254.5,284.5 254.5,283.5C 253.5,283.5 252.5,283.5 251.5,283.5 Z M 289.5,283.5 C 295.167,283.5 300.833,283.5 306.5,283.5C 306.5,284.5 306.5,285.5 306.5,286.5C 305.5,286.5 304.5,286.5 303.5,286.5C 303.5,287.5 303.5,288.5 303.5,289.5C 298.833,289.5 294.167,289.5 289.5,289.5C 289.5,287.5 289.5,285.5 289.5,283.5 Z M 246.5,286.5 C 246.5,287.5 246.5,288.5 246.5,289.5C 245.5,289.5 244.5,289.5 243.5,289.5C 243.5,288.5 243.5,287.5 243.5,286.5C 244.5,286.5 245.5,286.5 246.5,286.5 Z M 254.5,286.5 C 255.5,286.5 256.5,286.5 257.5,286.5C 257.5,287.5 257.5,288.5 257.5,289.5C 256.5,289.5 255.5,289.5 254.5,289.5C 254.5,288.5 254.5,287.5 254.5,286.5 Z M 62.5,289.5 C 64.5,289.5 66.5,289.5 68.5,289.5C 68.5,295.167 68.5,300.833 68.5,306.5C 67.5,306.5 66.5,306.5 65.5,306.5C 65.5,305.5 65.5,304.5 65.5,303.5C 64.5,303.5 63.5,303.5 62.5,303.5C 62.5,298.833 62.5,294.167 62.5,289.5 Z M 237.5,289.5 C 238.5,289.5 239.5,289.5 240.5,289.5C 240.5,290.5 240.5,291.5 240.5,292.5C 239.5,292.5 238.5,292.5 237.5,292.5C 237.5,291.5 237.5,290.5 237.5,289.5 Z M 280.5,292.5 C 286.206,292.171 291.872,292.505 297.5,293.5C 296.675,294.386 295.675,294.719 294.5,294.5C 293.833,296.5 293.167,298.5 292.5,300.5C 290.5,300.5 288.5,300.5 286.5,300.5C 286.5,299.5 286.5,298.5 286.5,297.5C 283.5,297.5 280.5,297.5 277.5,297.5C 277.5,296.5 277.5,295.5 277.5,294.5C 279.179,294.715 280.179,294.048 280.5,292.5 Z M 74.5,297.5 C 76.0481,297.821 76.7148,298.821 76.5,300.5C 77.5,300.5 78.5,300.5 79.5,300.5C 79.5,305.5 79.5,310.5 79.5,315.5C 78.5,315.5 77.5,315.5 76.5,315.5C 74.7908,309.672 74.1241,303.672 74.5,297.5 Z M 217.5,297.5 C 218.5,297.5 219.5,297.5 220.5,297.5C 220.5,298.5 220.5,299.5 220.5,300.5C 219.5,300.5 218.5,300.5 217.5,300.5C 217.5,299.5 217.5,298.5 217.5,297.5 Z M 226.5,303.5 C 225.5,303.5 224.5,303.5 223.5,303.5C 223.5,301.5 223.5,299.5 223.5,297.5C 224.5,297.5 225.5,297.5 226.5,297.5C 226.5,299.5 226.5,301.5 226.5,303.5 Z M 137.5,300.5 C 137.5,302.5 137.5,304.5 137.5,306.5C 136.5,306.5 135.5,306.5 134.5,306.5C 134.5,304.5 134.5,302.5 134.5,300.5C 135.5,300.5 136.5,300.5 137.5,300.5 Z M 234.5,303.5 C 233.5,303.5 232.5,303.5 231.5,303.5C 231.5,302.5 231.5,301.5 231.5,300.5C 232.5,300.5 233.5,300.5 234.5,300.5C 234.5,301.5 234.5,302.5 234.5,303.5 Z M 269.5,300.5 C 272.167,300.5 274.833,300.5 277.5,300.5C 277.5,301.5 277.5,302.5 277.5,303.5C 280.5,303.5 283.5,303.5 286.5,303.5C 286.5,304.5 286.5,305.5 286.5,306.5C 285.5,306.5 284.5,306.5 283.5,306.5C 283.5,307.5 283.5,308.5 283.5,309.5C 279.833,309.5 276.167,309.5 272.5,309.5C 272.5,308.5 272.5,307.5 272.5,306.5C 270.5,306.5 268.5,306.5 266.5,306.5C 266.5,305.5 266.5,304.5 266.5,303.5C 267.5,303.5 268.5,303.5 269.5,303.5C 269.5,302.5 269.5,301.5 269.5,300.5 Z M 223.5,303.5 C 223.5,304.5 223.5,305.5 223.5,306.5C 222.5,306.5 221.5,306.5 220.5,306.5C 220.5,305.5 220.5,304.5 220.5,303.5C 221.5,303.5 222.5,303.5 223.5,303.5 Z M 88.5,306.5 C 88.5,307.5 88.5,308.5 88.5,309.5C 89.5,309.5 90.5,309.5 91.5,309.5C 91.5,313.167 91.5,316.833 91.5,320.5C 89.5,320.5 87.5,320.5 85.5,320.5C 85.5,315.833 85.5,311.167 85.5,306.5C 86.5,306.5 87.5,306.5 88.5,306.5 Z M 183.5,306.5 C 185.048,306.821 185.715,307.821 185.5,309.5C 186.5,309.5 187.5,309.5 188.5,309.5C 188.5,310.5 188.5,311.5 188.5,312.5C 186.833,312.5 185.167,312.5 183.5,312.5C 183.5,310.5 183.5,308.5 183.5,306.5 Z M 257.5,309.5 C 260.5,309.5 263.5,309.5 266.5,309.5C 266.5,310.5 266.5,311.5 266.5,312.5C 269.167,312.5 271.833,312.5 274.5,312.5C 273.995,316.159 271.828,317.826 268,317.5C 264.539,316.51 261.039,315.843 257.5,315.5C 257.5,313.5 257.5,311.5 257.5,309.5 Z M 97.5,312.5 C 99.0481,312.821 99.7148,313.821 99.5,315.5C 100.5,315.5 101.5,315.5 102.5,315.5C 102.5,317.167 102.5,318.833 102.5,320.5C 103.5,320.5 104.5,320.5 105.5,320.5C 105.5,323.5 105.5,326.5 105.5,329.5C 104.5,329.5 103.5,329.5 102.5,329.5C 102.5,328.5 102.5,327.5 102.5,326.5C 100.833,326.5 99.1667,326.5 97.5,326.5C 97.5,321.833 97.5,317.167 97.5,312.5 Z M 108.5,317.5 C 109.5,317.5 110.5,317.5 111.5,317.5C 111.5,318.5 111.5,319.5 111.5,320.5C 112.5,320.5 113.5,320.5 114.5,320.5C 114.5,321.5 114.5,322.5 114.5,323.5C 115.5,323.5 116.5,323.5 117.5,323.5C 117.32,327.682 117.987,331.682 119.5,335.5C 117.833,335.5 116.167,335.5 114.5,335.5C 114.5,334.5 114.5,333.5 114.5,332.5C 113.5,332.5 112.5,332.5 111.5,332.5C 111.5,329.5 111.5,326.5 111.5,323.5C 110.5,323.5 109.5,323.5 108.5,323.5C 108.5,321.5 108.5,319.5 108.5,317.5 Z M 243.5,317.5 C 248.167,317.5 252.833,317.5 257.5,317.5C 257.5,318.5 257.5,319.5 257.5,320.5C 258.5,320.5 259.5,320.5 260.5,320.5C 260.5,321.5 260.5,322.5 260.5,323.5C 259.5,323.5 258.5,323.5 257.5,323.5C 257.5,324.5 257.5,325.5 257.5,326.5C 256.5,326.5 255.5,326.5 254.5,326.5C 254.5,325.5 254.5,324.5 254.5,323.5C 252.833,323.5 251.167,323.5 249.5,323.5C 249.5,322.5 249.5,321.5 249.5,320.5C 247.5,320.5 245.5,320.5 243.5,320.5C 243.5,319.5 243.5,318.5 243.5,317.5 Z M 234.5,320.5 C 235.5,320.5 236.5,320.5 237.5,320.5C 237.5,321.5 237.5,322.5 237.5,323.5C 238.5,323.5 239.5,323.5 240.5,323.5C 240.5,324.5 240.5,325.5 240.5,326.5C 243.5,326.5 246.5,326.5 249.5,326.5C 249.5,327.5 249.5,328.5 249.5,329.5C 247.5,329.5 245.5,329.5 243.5,329.5C 243.5,330.5 243.5,331.5 243.5,332.5C 242.5,332.5 241.5,332.5 240.5,332.5C 240.5,331.5 240.5,330.5 240.5,329.5C 238.5,329.5 236.5,329.5 234.5,329.5C 234.5,328.5 234.5,327.5 234.5,326.5C 233.5,326.5 232.5,326.5 231.5,326.5C 231.5,325.5 231.5,324.5 231.5,323.5C 232.5,323.5 233.5,323.5 234.5,323.5C 234.5,322.5 234.5,321.5 234.5,320.5 Z M 131.5,338.5 C 129.5,338.5 127.5,338.5 125.5,338.5C 125.5,336.5 125.5,334.5 125.5,332.5C 124.5,332.5 123.5,332.5 122.5,332.5C 122.5,330.5 122.5,328.5 122.5,326.5C 124.5,326.5 126.5,326.5 128.5,326.5C 128.5,327.5 128.5,328.5 128.5,329.5C 129.5,329.5 130.5,329.5 131.5,329.5C 131.5,332.5 131.5,335.5 131.5,338.5 Z M 217.5,326.5 C 220.5,326.5 223.5,326.5 226.5,326.5C 226.5,327.5 226.5,328.5 226.5,329.5C 227.5,329.5 228.5,329.5 229.5,329.5C 229.5,330.5 229.5,331.5 229.5,332.5C 231.167,332.5 232.833,332.5 234.5,332.5C 234.5,333.5 234.5,334.5 234.5,335.5C 230.833,335.5 227.167,335.5 223.5,335.5C 223.5,334.5 223.5,333.5 223.5,332.5C 222.5,332.5 221.5,332.5 220.5,332.5C 220.5,331.5 220.5,330.5 220.5,329.5C 219.5,329.5 218.5,329.5 217.5,329.5C 217.5,328.5 217.5,327.5 217.5,326.5 Z M 134.5,329.5 C 137.167,329.5 139.833,329.5 142.5,329.5C 142.5,331.5 142.5,333.5 142.5,335.5C 143.5,335.5 144.5,335.5 145.5,335.5C 145.5,337.167 145.5,338.833 145.5,340.5C 146.5,340.5 147.5,340.5 148.5,340.5C 148.5,341.5 148.5,342.5 148.5,343.5C 146.5,343.5 144.5,343.5 142.5,343.5C 142.167,340.5 140.5,338.833 137.5,338.5C 137.5,336.5 137.5,334.5 137.5,332.5C 136.5,332.5 135.5,332.5 134.5,332.5C 134.5,331.5 134.5,330.5 134.5,329.5 Z M 206.5,329.5 C 208.167,329.5 209.833,329.5 211.5,329.5C 211.5,330.5 211.5,331.5 211.5,332.5C 212.5,332.5 213.5,332.5 214.5,332.5C 214.5,333.5 214.5,334.5 214.5,335.5C 215.5,335.5 216.5,335.5 217.5,335.5C 217.5,336.5 217.5,337.5 217.5,338.5C 221.422,339.117 221.422,339.784 217.5,340.5C 214.621,339.205 211.621,338.538 208.5,338.5C 207.224,335.664 206.558,332.664 206.5,329.5 Z M 148.5,332.5 C 151.5,332.5 154.5,332.5 157.5,332.5C 157.5,334.5 157.5,336.5 157.5,338.5C 158.5,338.5 159.5,338.5 160.5,338.5C 160.5,340.167 160.5,341.833 160.5,343.5C 161.5,343.5 162.5,343.5 163.5,343.5C 163.5,344.5 163.5,345.5 163.5,346.5C 161.5,346.5 159.5,346.5 157.5,346.5C 157.5,345.5 157.5,344.5 157.5,343.5C 156.5,343.5 155.5,343.5 154.5,343.5C 154.5,342.5 154.5,341.5 154.5,340.5C 153.5,340.5 152.5,340.5 151.5,340.5C 151.5,338.833 151.5,337.167 151.5,335.5C 150.5,335.5 149.5,335.5 148.5,335.5C 148.5,334.5 148.5,333.5 148.5,332.5 Z M 163.5,332.5 C 165.048,332.821 165.715,333.821 165.5,335.5C 167.5,335.5 169.5,335.5 171.5,335.5C 171.5,336.5 171.5,337.5 171.5,338.5C 172.5,338.5 173.5,338.5 174.5,338.5C 174.5,340.167 174.5,341.833 174.5,343.5C 175.5,343.5 176.5,343.5 177.5,343.5C 177.5,344.5 177.5,345.5 177.5,346.5C 175.5,346.5 173.5,346.5 171.5,346.5C 171.5,345.5 171.5,344.5 171.5,343.5C 170.5,343.5 169.5,343.5 168.5,343.5C 168.5,342.5 168.5,341.5 168.5,340.5C 164.47,339.494 162.803,336.827 163.5,332.5 Z M 188.5,332.5 C 191.5,332.5 194.5,332.5 197.5,332.5C 197.5,333.5 197.5,334.5 197.5,335.5C 198.5,335.5 199.5,335.5 200.5,335.5C 200.5,336.5 200.5,337.5 200.5,338.5C 202.5,339.167 204.5,339.833 206.5,340.5C 206.5,341.5 206.5,342.5 206.5,343.5C 203.5,343.5 200.5,343.5 197.5,343.5C 197.5,342.5 197.5,341.5 197.5,340.5C 195.5,339.833 193.5,339.167 191.5,338.5C 191.5,337.5 191.5,336.5 191.5,335.5C 190.5,335.5 189.5,335.5 188.5,335.5C 188.5,334.5 188.5,333.5 188.5,332.5 Z M 177.5,335.5 C 180.167,335.5 182.833,335.5 185.5,335.5C 185.5,336.5 185.5,337.5 185.5,338.5C 187.5,339.167 189.5,339.833 191.5,340.5C 191.5,341.5 191.5,342.5 191.5,343.5C 192.5,343.5 193.5,343.5 194.5,343.5C 194.5,344.5 194.5,345.5 194.5,346.5C 191.5,346.5 188.5,346.5 185.5,346.5C 184.833,344.5 184.167,342.5 183.5,340.5C 181.5,339.833 179.5,339.167 177.5,338.5C 177.5,337.5 177.5,336.5 177.5,335.5 Z M 131.5,338.5 C 132.675,338.281 133.675,338.614 134.5,339.5C 132.948,340.798 131.948,340.465 131.5,338.5 Z"/></g>
<g><path style="opacity:0.59" fill="#fefefe" d="M 163.5,33.5 C 171.833,33.5 180.167,33.5 188.5,33.5C 188.5,34.5 188.5,35.5 188.5,36.5C 189.5,36.5 190.5,36.5 191.5,36.5C 191.5,41.5 191.5,46.5 191.5,51.5C 190.5,51.5 189.5,51.5 188.5,51.5C 188.5,52.5 188.5,53.5 188.5,54.5C 189.5,54.5 190.5,54.5 191.5,54.5C 191.5,58.1667 191.5,61.8333 191.5,65.5C 186.833,65.5 182.167,65.5 177.5,65.5C 177.5,64.5 177.5,63.5 177.5,62.5C 175.5,62.5 173.5,62.5 171.5,62.5C 171.5,63.5 171.5,64.5 171.5,65.5C 169.5,65.5 167.5,65.5 165.5,65.5C 165.5,62.5 165.5,59.5 165.5,56.5C 163.833,56.5 162.167,56.5 160.5,56.5C 160.5,54.8333 160.5,53.1667 160.5,51.5C 161.5,51.5 162.5,51.5 163.5,51.5C 163.5,50.5 163.5,49.5 163.5,48.5C 162.5,48.5 161.5,48.5 160.5,48.5C 160.5,45.5 160.5,42.5 160.5,39.5C 161.5,39.5 162.5,39.5 163.5,39.5C 163.5,37.5 163.5,35.5 163.5,33.5 Z"/></g>
<g><path style="opacity:0.611" fill="#fdfdfd" d="M 125.5,42.5 C 128.5,42.5 131.5,42.5 134.5,42.5C 134.5,44.5 134.5,46.5 134.5,48.5C 133.5,48.5 132.5,48.5 131.5,48.5C 131.5,49.5 131.5,50.5 131.5,51.5C 130.5,51.5 129.5,51.5 128.5,51.5C 128.5,53.1667 128.5,54.8333 128.5,56.5C 129.5,56.5 130.5,56.5 131.5,56.5C 131.5,59.5 131.5,62.5 131.5,65.5C 132.5,65.5 133.5,65.5 134.5,65.5C 134.5,64.5 134.5,63.5 134.5,62.5C 136.5,62.5 138.5,62.5 140.5,62.5C 140.5,61.5 140.5,60.5 140.5,59.5C 142.167,59.5 143.833,59.5 145.5,59.5C 145.5,61.5 145.5,63.5 145.5,65.5C 144.5,65.5 143.5,65.5 142.5,65.5C 142.5,66.5 142.5,67.5 142.5,68.5C 140.833,68.5 139.167,68.5 137.5,68.5C 137.5,69.5 137.5,70.5 137.5,71.5C 135.5,71.5 133.5,71.5 131.5,71.5C 131.5,72.5 131.5,73.5 131.5,74.5C 127.508,74.239 123.674,74.9056 120,76.5C 118.2,75.6216 116.367,74.955 114.5,74.5C 114.5,73.5 114.5,72.5 114.5,71.5C 116.167,71.5 117.833,71.5 119.5,71.5C 119.5,70.5 119.5,69.5 119.5,68.5C 121.5,68.5 123.5,68.5 125.5,68.5C 125.5,67.5 125.5,66.5 125.5,65.5C 124.5,65.5 123.5,65.5 122.5,65.5C 122.5,62.5 122.5,59.5 122.5,56.5C 117.833,56.5 113.167,56.5 108.5,56.5C 108.5,54.8333 108.5,53.1667 108.5,51.5C 110.5,51.5 112.5,51.5 114.5,51.5C 114.5,50.5 114.5,49.5 114.5,48.5C 116.167,48.5 117.833,48.5 119.5,48.5C 119.5,47.5 119.5,46.5 119.5,45.5C 121.5,45.5 123.5,45.5 125.5,45.5C 125.5,44.5 125.5,43.5 125.5,42.5 Z"/></g>
<g><path style="opacity:0.667" fill="#fdfdfd" d="M 223.5,68.5 C 221.5,68.5 219.5,68.5 217.5,68.5C 217.5,67.5 217.5,66.5 217.5,65.5C 216.5,65.5 215.5,65.5 214.5,65.5C 214.5,66.5 214.5,67.5 214.5,68.5C 212.5,68.5 210.5,68.5 208.5,68.5C 208.5,65.5 208.5,62.5 208.5,59.5C 209.5,59.5 210.5,59.5 211.5,59.5C 211.5,58.5 211.5,57.5 211.5,56.5C 211.5,54.8333 211.5,53.1667 211.5,51.5C 212.5,51.5 213.5,51.5 214.5,51.5C 214.5,49.5 214.5,47.5 214.5,45.5C 215.5,45.5 216.5,45.5 217.5,45.5C 217.5,44.5 217.5,43.5 217.5,42.5C 221.5,42.5 225.5,42.5 229.5,42.5C 230.167,44.5 230.833,46.5 231.5,48.5C 234.5,48.5 237.5,48.5 240.5,48.5C 240.5,49.5 240.5,50.5 240.5,51.5C 242.5,51.5 244.5,51.5 246.5,51.5C 246.5,52.5 246.5,53.5 246.5,54.5C 244.5,55.1667 242.5,55.8333 240.5,56.5C 240.5,59.5 240.5,62.5 240.5,65.5C 239.5,65.5 238.5,65.5 237.5,65.5C 237.5,67.5 237.5,69.5 237.5,71.5C 236.5,71.5 235.5,71.5 234.5,71.5C 234.5,72.5 234.5,73.5 234.5,74.5C 230.833,74.5 227.167,74.5 223.5,74.5C 223.5,72.5 223.5,70.5 223.5,68.5 Z M 223.5,68.5 C 224.5,68.5 225.5,68.5 226.5,68.5C 226.5,67.5 226.5,66.5 226.5,65.5C 225.5,65.5 224.5,65.5 223.5,65.5C 223.5,66.5 223.5,67.5 223.5,68.5 Z"/></g>
<g><path style="opacity:0.071" fill="#eff0ef" d="M 211.5,56.5 C 211.5,57.5 211.5,58.5 211.5,59.5C 210.5,59.5 209.5,59.5 208.5,59.5C 208.5,58.5 208.5,57.5 208.5,56.5C 209.5,56.5 210.5,56.5 211.5,56.5 Z"/></g>
<g><path style="opacity:0.671" fill="#fdfdfd" d="M 79.5,68.5 C 82.5,68.5 85.5,68.5 88.5,68.5C 88.5,69.5 88.5,70.5 88.5,71.5C 89.5,71.5 90.5,71.5 91.5,71.5C 91.5,72.5 91.5,73.5 91.5,74.5C 92.5,74.5 93.5,74.5 94.5,74.5C 94.5,76.1667 94.5,77.8333 94.5,79.5C 96.1667,79.5 97.8333,79.5 99.5,79.5C 99.5,80.5 99.5,81.5 99.5,82.5C 101.5,82.5 103.5,82.5 105.5,82.5C 105.5,85.5 105.5,88.5 105.5,91.5C 104.5,91.5 103.5,91.5 102.5,91.5C 102.5,92.5 102.5,93.5 102.5,94.5C 101.5,94.5 100.5,94.5 99.5,94.5C 99.1667,97.5 97.5,99.1667 94.5,99.5C 94.5,100.5 94.5,101.5 94.5,102.5C 92.5,102.5 90.5,102.5 88.5,102.5C 88.5,104.5 88.5,106.5 88.5,108.5C 85.5,108.5 82.5,108.5 79.5,108.5C 79.5,106.5 79.5,104.5 79.5,102.5C 78.5,102.5 77.5,102.5 76.5,102.5C 76.5,101.5 76.5,100.5 76.5,99.5C 74.8333,99.5 73.1667,99.5 71.5,99.5C 71.5,97.8333 71.5,96.1667 71.5,94.5C 70.5,94.5 69.5,94.5 68.5,94.5C 68.5,90.5 68.5,86.5 68.5,82.5C 71.1667,82.5 73.8333,82.5 76.5,82.5C 76.5,81.5 76.5,80.5 76.5,79.5C 77.5,79.5 78.5,79.5 79.5,79.5C 79.5,78.5 79.5,77.5 79.5,76.5C 75.5,75.8333 75.5,75.1667 79.5,74.5C 79.5,72.5 79.5,70.5 79.5,68.5 Z"/></g>
<g><path style="opacity:0.642" fill="#fdfdfd" d="M 263.5,71.5 C 267.167,71.5 270.833,71.5 274.5,71.5C 274.5,73.1667 274.5,74.8333 274.5,76.5C 276.5,76.5 278.5,76.5 280.5,76.5C 280.5,77.5 280.5,78.5 280.5,79.5C 279.5,79.5 278.5,79.5 277.5,79.5C 277.5,80.5 277.5,81.5 277.5,82.5C 279.5,82.5 281.5,82.5 283.5,82.5C 283.5,83.5 283.5,84.5 283.5,85.5C 284.5,85.5 285.5,85.5 286.5,85.5C 286.5,86.5 286.5,87.5 286.5,88.5C 285.5,88.5 284.5,88.5 283.5,88.5C 283.5,91.5 283.5,94.5 283.5,97.5C 280.5,97.5 277.5,97.5 274.5,97.5C 274.5,100.167 274.5,102.833 274.5,105.5C 272.833,105.5 271.167,105.5 269.5,105.5C 269.5,103.5 269.5,101.5 269.5,99.5C 263.328,99.8759 257.328,99.2092 251.5,97.5C 251.5,94.5 251.5,91.5 251.5,88.5C 252.5,88.5 253.5,88.5 254.5,88.5C 254.5,87.5 254.5,86.5 254.5,85.5C 253.5,85.5 252.5,85.5 251.5,85.5C 251.5,83.5 251.5,81.5 251.5,79.5C 253.5,79.5 255.5,79.5 257.5,79.5C 257.5,80.5 257.5,81.5 257.5,82.5C 258.5,82.5 259.5,82.5 260.5,82.5C 260.5,80.5 260.5,78.5 260.5,76.5C 259.325,76.719 258.325,76.3857 257.5,75.5C 259.396,74.5344 261.396,74.2011 263.5,74.5C 263.5,73.5 263.5,72.5 263.5,71.5 Z"/></g>
<g><path style="opacity:0.929" fill="#fefefe" d="M 148.5,74.5 C 168.589,73.9579 188.589,74.6246 208.5,76.5C 208.5,77.5 208.5,78.5 208.5,79.5C 210.5,79.5 212.5,79.5 214.5,79.5C 214.5,80.5 214.5,81.5 214.5,82.5C 217.5,82.5 220.5,82.5 223.5,82.5C 223.5,83.5 223.5,84.5 223.5,85.5C 225.5,85.5 227.5,85.5 229.5,85.5C 230.167,87.5 230.833,89.5 231.5,91.5C 233.5,91.5 235.5,91.5 237.5,91.5C 237.5,92.5 237.5,93.5 237.5,94.5C 238.5,94.5 239.5,94.5 240.5,94.5C 240.5,95.5 240.5,96.5 240.5,97.5C 243.336,98.7755 246.336,99.4422 249.5,99.5C 249.558,102.664 250.224,105.664 251.5,108.5C 252.5,108.5 253.5,108.5 254.5,108.5C 254.5,109.5 254.5,110.5 254.5,111.5C 255.5,111.5 256.5,111.5 257.5,111.5C 257.5,113.5 257.5,115.5 257.5,117.5C 259.5,118.167 261.5,118.833 263.5,119.5C 263.5,120.5 263.5,121.5 263.5,122.5C 264.5,122.5 265.5,122.5 266.5,122.5C 266.5,125.5 266.5,128.5 266.5,131.5C 267.5,131.5 268.5,131.5 269.5,131.5C 269.5,133.5 269.5,135.5 269.5,137.5C 270.5,137.5 271.5,137.5 272.5,137.5C 274.116,145.053 274.783,152.72 274.5,160.5C 275.5,160.5 276.5,160.5 277.5,160.5C 277.5,169.833 277.5,179.167 277.5,188.5C 276.5,188.5 275.5,188.5 274.5,188.5C 274.566,197.238 273.899,205.904 272.5,214.5C 271.5,214.5 270.5,214.5 269.5,214.5C 269.5,216.5 269.5,218.5 269.5,220.5C 268.5,220.5 267.5,220.5 266.5,220.5C 266.5,222.5 266.5,224.5 266.5,226.5C 265.5,226.5 264.5,226.5 263.5,226.5C 263.5,228.167 263.5,229.833 263.5,231.5C 262.5,231.5 261.5,231.5 260.5,231.5C 260.5,232.5 260.5,233.5 260.5,234.5C 259.5,234.5 258.5,234.5 257.5,234.5C 257.5,235.5 257.5,236.5 257.5,237.5C 256.5,237.5 255.5,237.5 254.5,237.5C 254.5,238.5 254.5,239.5 254.5,240.5C 253.5,240.5 252.5,240.5 251.5,240.5C 250.224,243.336 249.558,246.336 249.5,249.5C 246.336,249.558 243.336,250.224 240.5,251.5C 240.5,252.5 240.5,253.5 240.5,254.5C 239.5,254.5 238.5,254.5 237.5,254.5C 237.5,255.5 237.5,256.5 237.5,257.5C 235.5,257.5 233.5,257.5 231.5,257.5C 230.833,259.5 230.167,261.5 229.5,263.5C 228.5,263.5 227.5,263.5 226.5,263.5C 226.5,264.5 226.5,265.5 226.5,266.5C 223.5,266.5 220.5,266.5 217.5,266.5C 217.5,267.5 217.5,268.5 217.5,269.5C 215.5,269.5 213.5,269.5 211.5,269.5C 211.5,270.5 211.5,271.5 211.5,272.5C 202.276,274.2 192.943,274.867 183.5,274.5C 183.5,275.5 183.5,276.5 183.5,277.5C 177.5,277.5 171.5,277.5 165.5,277.5C 165.5,276.5 165.5,275.5 165.5,274.5C 157.097,274.53 148.763,273.864 140.5,272.5C 140.5,271.5 140.5,270.5 140.5,269.5C 138.5,269.5 136.5,269.5 134.5,269.5C 134.5,268.5 134.5,267.5 134.5,266.5C 131.5,266.5 128.5,266.5 125.5,266.5C 125.5,265.5 125.5,264.5 125.5,263.5C 124.5,263.5 123.5,263.5 122.5,263.5C 122.5,262.5 122.5,261.5 122.5,260.5C 120.833,260.5 119.167,260.5 117.5,260.5C 117.5,259.5 117.5,258.5 117.5,257.5C 116.5,257.5 115.5,257.5 114.5,257.5C 114.5,256.5 114.5,255.5 114.5,254.5C 113.5,254.5 112.5,254.5 111.5,254.5C 111.5,253.5 111.5,252.5 111.5,251.5C 108.336,251.442 105.336,250.776 102.5,249.5C 102.5,248.5 102.5,247.5 102.5,246.5C 101.5,246.5 100.5,246.5 99.5,246.5C 99.4422,243.336 98.7755,240.336 97.5,237.5C 96.5,237.5 95.5,237.5 94.5,237.5C 94.5,236.5 94.5,235.5 94.5,234.5C 93.5,234.5 92.5,234.5 91.5,234.5C 91.5,233.5 91.5,232.5 91.5,231.5C 90.5,231.5 89.5,231.5 88.5,231.5C 88.5,228.833 88.5,226.167 88.5,223.5C 87.5,223.5 86.5,223.5 85.5,223.5C 85.5,222.5 85.5,221.5 85.5,220.5C 84.5,220.5 83.5,220.5 82.5,220.5C 82.5,218.5 82.5,216.5 82.5,214.5C 81.5,214.5 80.5,214.5 79.5,214.5C 79.5,210.833 79.5,207.167 79.5,203.5C 78.5,203.5 77.5,203.5 76.5,203.5C 75.6387,193.861 74.9721,184.194 74.5,174.5C 74.9721,164.806 75.6387,155.139 76.5,145.5C 77.5,145.5 78.5,145.5 79.5,145.5C 79.5,142.833 79.5,140.167 79.5,137.5C 80.5,137.5 81.5,137.5 82.5,137.5C 82.5,135.5 82.5,133.5 82.5,131.5C 83.5,131.5 84.5,131.5 85.5,131.5C 85.5,129.5 85.5,127.5 85.5,125.5C 86.5,125.5 87.5,125.5 88.5,125.5C 88.5,123.5 88.5,121.5 88.5,119.5C 90.5,118.833 92.5,118.167 94.5,117.5C 94.5,115.5 94.5,113.5 94.5,111.5C 95.5,111.5 96.5,111.5 97.5,111.5C 98.1667,109.5 98.8333,107.5 99.5,105.5C 100.5,105.5 101.5,105.5 102.5,105.5C 102.5,104.5 102.5,103.5 102.5,102.5C 103.5,102.5 104.5,102.5 105.5,102.5C 105.5,101.5 105.5,100.5 105.5,99.5C 107.5,98.8333 109.5,98.1667 111.5,97.5C 111.5,96.5 111.5,95.5 111.5,94.5C 112.5,94.5 113.5,94.5 114.5,94.5C 114.5,93.5 114.5,92.5 114.5,91.5C 116.167,91.5 117.833,91.5 119.5,91.5C 119.5,90.5 119.5,89.5 119.5,88.5C 120.5,88.5 121.5,88.5 122.5,88.5C 122.5,87.5 122.5,86.5 122.5,85.5C 124.5,85.5 126.5,85.5 128.5,85.5C 128.5,84.5 128.5,83.5 128.5,82.5C 130.5,82.5 132.5,82.5 134.5,82.5C 134.5,81.5 134.5,80.5 134.5,79.5C 136.5,79.5 138.5,79.5 140.5,79.5C 140.5,78.5 140.5,77.5 140.5,76.5C 143.698,77.0356 146.365,76.369 148.5,74.5 Z M 171.5,119.5 C 171.179,117.952 170.179,117.285 168.5,117.5C 167.5,117.5 166.5,117.5 165.5,117.5C 165.715,115.821 165.048,114.821 163.5,114.5C 162.5,114.5 161.5,114.5 160.5,114.5C 160.5,113.5 160.5,112.5 160.5,111.5C 159.5,111.5 158.5,111.5 157.5,111.5C 157.5,110.5 157.5,109.5 157.5,108.5C 160.167,108.5 162.833,108.5 165.5,108.5C 165.5,107.5 165.5,106.5 165.5,105.5C 166.5,105.5 167.5,105.5 168.5,105.5C 168.5,104.5 168.5,103.5 168.5,102.5C 170.5,102.5 172.5,102.5 174.5,102.5C 174.5,101.5 174.5,100.5 174.5,99.5C 175.5,99.5 176.5,99.5 177.5,99.5C 177.5,100.5 177.5,101.5 177.5,102.5C 179.5,102.5 181.5,102.5 183.5,102.5C 184.167,104.5 184.833,106.5 185.5,108.5C 188.5,108.5 191.5,108.5 194.5,108.5C 194.5,109.5 194.5,110.5 194.5,111.5C 193.5,111.5 192.5,111.5 191.5,111.5C 191.5,112.5 191.5,113.5 191.5,114.5C 189.5,114.5 187.5,114.5 185.5,114.5C 185.5,115.5 185.5,116.5 185.5,117.5C 180.933,118.736 176.266,119.402 171.5,119.5 Z M 137.5,122.5 C 137.5,123.5 137.5,124.5 137.5,125.5C 135.5,125.5 133.5,125.5 131.5,125.5C 131.5,126.5 131.5,127.5 131.5,128.5C 129.5,128.5 127.5,128.5 125.5,128.5C 125.5,129.5 125.5,130.5 125.5,131.5C 124.5,131.5 123.5,131.5 122.5,131.5C 122.5,132.5 122.5,133.5 122.5,134.5C 120.833,134.5 119.167,134.5 117.5,134.5C 117.5,135.5 117.5,136.5 117.5,137.5C 116.5,137.5 115.5,137.5 114.5,137.5C 114.5,162.167 114.5,186.833 114.5,211.5C 116.167,211.5 117.833,211.5 119.5,211.5C 119.5,212.5 119.5,213.5 119.5,214.5C 121.5,214.5 123.5,214.5 125.5,214.5C 125.5,215.5 125.5,216.5 125.5,217.5C 127.5,217.5 129.5,217.5 131.5,217.5C 131.5,218.5 131.5,219.5 131.5,220.5C 132.5,220.5 133.5,220.5 134.5,220.5C 134.5,221.5 134.5,222.5 134.5,223.5C 136.5,223.5 138.5,223.5 140.5,223.5C 140.5,224.5 140.5,225.5 140.5,226.5C 142.167,226.5 143.833,226.5 145.5,226.5C 145.5,227.5 145.5,228.5 145.5,229.5C 148.336,230.776 151.336,231.442 154.5,231.5C 154.5,232.5 154.5,233.5 154.5,234.5C 156.5,234.5 158.5,234.5 160.5,234.5C 160.5,235.5 160.5,236.5 160.5,237.5C 161.5,237.5 162.5,237.5 163.5,237.5C 163.5,238.5 163.5,239.5 163.5,240.5C 166.167,240.5 168.833,240.5 171.5,240.5C 171.5,241.5 171.5,242.5 171.5,243.5C 172.5,243.5 173.5,243.5 174.5,243.5C 174.5,244.5 174.5,245.5 174.5,246.5C 175.5,246.5 176.5,246.5 177.5,246.5C 177.5,245.5 177.5,244.5 177.5,243.5C 179.5,243.5 181.5,243.5 183.5,243.5C 183.5,242.5 183.5,241.5 183.5,240.5C 185.167,240.5 186.833,240.5 188.5,240.5C 188.5,239.5 188.5,238.5 188.5,237.5C 189.5,237.5 190.5,237.5 191.5,237.5C 191.5,236.5 191.5,235.5 191.5,234.5C 193.5,234.5 195.5,234.5 197.5,234.5C 197.5,233.5 197.5,232.5 197.5,231.5C 201.212,231.039 204.879,230.373 208.5,229.5C 208.5,228.5 208.5,227.5 208.5,226.5C 209.5,226.5 210.5,226.5 211.5,226.5C 211.5,225.5 211.5,224.5 211.5,223.5C 213.5,223.5 215.5,223.5 217.5,223.5C 217.5,222.5 217.5,221.5 217.5,220.5C 219.5,220.5 221.5,220.5 223.5,220.5C 223.5,219.5 223.5,218.5 223.5,217.5C 224.5,217.5 225.5,217.5 226.5,217.5C 226.5,216.5 226.5,215.5 226.5,214.5C 228.167,214.5 229.833,214.5 231.5,214.5C 231.5,213.5 231.5,212.5 231.5,211.5C 232.5,211.5 233.5,211.5 234.5,211.5C 234.5,210.5 234.5,209.5 234.5,208.5C 235.5,208.5 236.5,208.5 237.5,208.5C 237.5,184.833 237.5,161.167 237.5,137.5C 236.5,137.5 235.5,137.5 234.5,137.5C 234.5,136.5 234.5,135.5 234.5,134.5C 233.5,134.5 232.5,134.5 231.5,134.5C 231.5,133.5 231.5,132.5 231.5,131.5C 229.833,131.5 228.167,131.5 226.5,131.5C 226.5,130.5 226.5,129.5 226.5,128.5C 225.5,128.5 224.5,128.5 223.5,128.5C 223.5,127.5 223.5,126.5 223.5,125.5C 221.5,125.5 219.5,125.5 217.5,125.5C 217.5,124.5 217.5,123.5 217.5,122.5C 214.5,122.5 211.5,122.5 208.5,122.5C 208.5,123.5 208.5,124.5 208.5,125.5C 206.833,125.5 205.167,125.5 203.5,125.5C 203.5,126.5 203.5,127.5 203.5,128.5C 201.5,128.5 199.5,128.5 197.5,128.5C 197.5,129.5 197.5,130.5 197.5,131.5C 196.5,131.5 195.5,131.5 194.5,131.5C 194.5,132.5 194.5,133.5 194.5,134.5C 192.5,134.5 190.5,134.5 188.5,134.5C 188.5,135.5 188.5,136.5 188.5,137.5C 186.833,137.5 185.167,137.5 183.5,137.5C 183.5,138.5 183.5,139.5 183.5,140.5C 181.103,141.368 178.603,142.035 176,142.5C 173.397,142.035 170.897,141.368 168.5,140.5C 168.5,139.5 168.5,138.5 168.5,137.5C 166.833,137.5 165.167,137.5 163.5,137.5C 163.5,136.5 163.5,135.5 163.5,134.5C 161.5,134.5 159.5,134.5 157.5,134.5C 157.5,133.5 157.5,132.5 157.5,131.5C 156.5,131.5 155.5,131.5 154.5,131.5C 154.5,130.5 154.5,129.5 154.5,128.5C 152.5,128.5 150.5,128.5 148.5,128.5C 148.5,127.5 148.5,126.5 148.5,125.5C 146.5,125.5 144.5,125.5 142.5,125.5C 142.5,124.5 142.5,123.5 142.5,122.5C 140.833,122.5 139.167,122.5 137.5,122.5 Z"/></g>
<g><path style="opacity:0.683" fill="#fdfdfd" d="M 48.5,114.5 C 50.5,114.5 52.5,114.5 54.5,114.5C 54.5,115.5 54.5,116.5 54.5,117.5C 61.0518,119.039 67.7185,119.706 74.5,119.5C 74.5,120.5 74.5,121.5 74.5,122.5C 73.5,122.5 72.5,122.5 71.5,122.5C 71.5,126.5 71.5,130.5 71.5,134.5C 72.5,134.5 73.5,134.5 74.5,134.5C 74.5,135.5 74.5,136.5 74.5,137.5C 73.5,137.5 72.5,137.5 71.5,137.5C 71.5,138.5 71.5,139.5 71.5,140.5C 69.5,140.5 67.5,140.5 65.5,140.5C 65.5,142.167 65.5,143.833 65.5,145.5C 64.5,145.5 63.5,145.5 62.5,145.5C 62.5,146.5 62.5,147.5 62.5,148.5C 60.5,148.5 58.5,148.5 56.5,148.5C 56.5,147.5 56.5,146.5 56.5,145.5C 57.5,145.5 58.5,145.5 59.5,145.5C 59.5,144.5 59.5,143.5 59.5,142.5C 54.6529,142.768 49.9862,142.102 45.5,140.5C 45.5,138.5 45.5,136.5 45.5,134.5C 46.5,134.5 47.5,134.5 48.5,134.5C 48.5,133.5 48.5,132.5 48.5,131.5C 46.5,131.5 44.5,131.5 42.5,131.5C 42.5,129.5 42.5,127.5 42.5,125.5C 43.5,125.5 44.5,125.5 45.5,125.5C 45.5,124.5 45.5,123.5 45.5,122.5C 46.5,122.5 47.5,122.5 48.5,122.5C 48.5,119.833 48.5,117.167 48.5,114.5 Z"/></g>
<g><path style="opacity:0.067" fill="#eff0ef" d="M 163.5,114.5 C 165.048,114.821 165.715,115.821 165.5,117.5C 163.952,117.179 163.285,116.179 163.5,114.5 Z"/></g>
<g><path style="opacity:0.649" fill="#fdfdfd" d="M 292.5,145.5 C 292.5,147.5 292.5,149.5 292.5,151.5C 289.5,151.5 286.5,151.5 283.5,151.5C 283.5,147.833 283.5,144.167 283.5,140.5C 284.5,140.5 285.5,140.5 286.5,140.5C 286.5,139.5 286.5,138.5 286.5,137.5C 284.5,137.5 282.5,137.5 280.5,137.5C 280.5,136.5 280.5,135.5 280.5,134.5C 279.5,134.5 278.5,134.5 277.5,134.5C 277.5,132.5 277.5,130.5 277.5,128.5C 276.5,128.5 275.5,128.5 274.5,128.5C 274.5,126.5 274.5,124.5 274.5,122.5C 275.5,122.5 276.5,122.5 277.5,122.5C 277.5,121.5 277.5,120.5 277.5,119.5C 283.187,118.976 288.854,118.31 294.5,117.5C 294.5,116.5 294.5,115.5 294.5,114.5C 297.5,114.5 300.5,114.5 303.5,114.5C 303.5,115.5 303.5,116.5 303.5,117.5C 304.5,117.5 305.5,117.5 306.5,117.5C 306.5,121.167 306.5,124.833 306.5,128.5C 307.5,128.5 308.5,128.5 309.5,128.5C 309.5,133.167 309.5,137.833 309.5,142.5C 306.5,142.5 303.5,142.5 300.5,142.5C 300.5,143.5 300.5,144.5 300.5,145.5C 297.833,145.5 295.167,145.5 292.5,145.5 Z"/></g>
<g><path style="opacity:0.035" fill="#e1e2e1" d="M 168.5,117.5 C 170.179,117.285 171.179,117.952 171.5,119.5C 169.821,119.715 168.821,119.048 168.5,117.5 Z"/></g>
<g><path style="opacity:0.877" fill="#fefefe" d="M 140.5,140.5 C 142.916,141.968 145.583,142.635 148.5,142.5C 148.5,143.5 148.5,144.5 148.5,145.5C 150.5,145.5 152.5,145.5 154.5,145.5C 154.5,146.5 154.5,147.5 154.5,148.5C 155.5,148.5 156.5,148.5 157.5,148.5C 157.5,149.5 157.5,150.5 157.5,151.5C 159.5,151.5 161.5,151.5 163.5,151.5C 163.5,152.5 163.5,153.5 163.5,154.5C 165.167,154.5 166.833,154.5 168.5,154.5C 168.5,155.5 168.5,156.5 168.5,157.5C 169.5,157.5 170.5,157.5 171.5,157.5C 171.5,158.5 171.5,159.5 171.5,160.5C 174.5,160.5 177.5,160.5 180.5,160.5C 180.5,159.5 180.5,158.5 180.5,157.5C 181.5,157.5 182.5,157.5 183.5,157.5C 183.5,156.5 183.5,155.5 183.5,154.5C 185.167,154.5 186.833,154.5 188.5,154.5C 188.5,153.5 188.5,152.5 188.5,151.5C 190.5,151.5 192.5,151.5 194.5,151.5C 194.5,150.5 194.5,149.5 194.5,148.5C 196.5,148.5 198.5,148.5 200.5,148.5C 200.5,147.5 200.5,146.5 200.5,145.5C 201.5,145.5 202.5,145.5 203.5,145.5C 203.5,144.5 203.5,143.5 203.5,142.5C 205.912,142.669 208.079,142.003 210,140.5C 212.256,142.085 214.756,142.752 217.5,142.5C 217.5,143.5 217.5,144.5 217.5,145.5C 218.5,145.5 219.5,145.5 220.5,145.5C 220.5,150.5 220.5,155.5 220.5,160.5C 218.5,160.5 216.5,160.5 214.5,160.5C 214.5,161.5 214.5,162.5 214.5,163.5C 210.173,162.803 207.506,164.47 206.5,168.5C 203.5,168.5 200.5,168.5 197.5,168.5C 197.5,169.5 197.5,170.5 197.5,171.5C 196.5,171.5 195.5,171.5 194.5,171.5C 194.5,172.5 194.5,173.5 194.5,174.5C 193.5,174.5 192.5,174.5 191.5,174.5C 191.5,175.5 191.5,176.5 191.5,177.5C 189.5,177.5 187.5,177.5 185.5,177.5C 185.5,184.167 185.5,190.833 185.5,197.5C 186.5,197.5 187.5,197.5 188.5,197.5C 188.5,196.5 188.5,195.5 188.5,194.5C 189.5,194.5 190.5,194.5 191.5,194.5C 191.5,193.5 191.5,192.5 191.5,191.5C 193.5,191.5 195.5,191.5 197.5,191.5C 197.5,190.5 197.5,189.5 197.5,188.5C 199.5,188.5 201.5,188.5 203.5,188.5C 203.5,187.5 203.5,186.5 203.5,185.5C 206.266,185.33 208.933,184.664 211.5,183.5C 214.379,184.795 217.379,185.462 220.5,185.5C 220.5,191.5 220.5,197.5 220.5,203.5C 218.5,203.5 216.5,203.5 214.5,203.5C 214.5,204.5 214.5,205.5 214.5,206.5C 210.788,206.961 207.121,207.627 203.5,208.5C 203.5,209.5 203.5,210.5 203.5,211.5C 202.5,211.5 201.5,211.5 200.5,211.5C 200.5,212.5 200.5,213.5 200.5,214.5C 198.5,214.5 196.5,214.5 194.5,214.5C 194.5,215.5 194.5,216.5 194.5,217.5C 192.5,217.5 190.5,217.5 188.5,217.5C 188.5,218.5 188.5,219.5 188.5,220.5C 187.5,220.5 186.5,220.5 185.5,220.5C 185.5,221.5 185.5,222.5 185.5,223.5C 183.833,223.5 182.167,223.5 180.5,223.5C 180.5,224.5 180.5,225.5 180.5,226.5C 178.5,226.5 176.5,226.5 174.5,226.5C 174.5,225.5 174.5,224.5 174.5,223.5C 171.5,223.5 168.5,223.5 165.5,223.5C 164.833,221.5 164.167,219.5 163.5,217.5C 161.5,217.5 159.5,217.5 157.5,217.5C 157.5,216.5 157.5,215.5 157.5,214.5C 155.5,214.5 153.5,214.5 151.5,214.5C 151.5,213.5 151.5,212.5 151.5,211.5C 150.5,211.5 149.5,211.5 148.5,211.5C 148.5,210.5 148.5,209.5 148.5,208.5C 144.788,208.039 141.121,207.373 137.5,206.5C 137.5,205.5 137.5,204.5 137.5,203.5C 135.5,203.5 133.5,203.5 131.5,203.5C 131.5,197.5 131.5,191.5 131.5,185.5C 134.897,185.259 138.231,184.593 141.5,183.5C 143.924,184.021 146.257,184.688 148.5,185.5C 148.5,186.5 148.5,187.5 148.5,188.5C 150.5,188.5 152.5,188.5 154.5,188.5C 154.5,189.5 154.5,190.5 154.5,191.5C 156.5,191.5 158.5,191.5 160.5,191.5C 160.5,192.5 160.5,193.5 160.5,194.5C 161.5,194.5 162.5,194.5 163.5,194.5C 163.281,195.675 163.614,196.675 164.5,197.5C 165.497,190.866 165.83,184.2 165.5,177.5C 163.833,177.5 162.167,177.5 160.5,177.5C 160.5,176.5 160.5,175.5 160.5,174.5C 159.5,174.5 158.5,174.5 157.5,174.5C 157.5,173.5 157.5,172.5 157.5,171.5C 155.5,171.5 153.5,171.5 151.5,171.5C 151.5,170.5 151.5,169.5 151.5,168.5C 149.5,168.5 147.5,168.5 145.5,168.5C 145.5,167.5 145.5,166.5 145.5,165.5C 142.975,164.36 140.308,163.693 137.5,163.5C 137.5,162.5 137.5,161.5 137.5,160.5C 135.5,160.5 133.5,160.5 131.5,160.5C 131.5,155.5 131.5,150.5 131.5,145.5C 132.5,145.5 133.5,145.5 134.5,145.5C 134.5,144.5 134.5,143.5 134.5,142.5C 137.082,142.975 139.082,142.308 140.5,140.5 Z"/></g>
<g><path style="opacity:0.043" fill="#e6e7e6" d="M 292.5,145.5 C 291.5,145.5 290.5,145.5 289.5,145.5C 289.5,144.5 289.5,143.5 289.5,142.5C 290.5,142.5 291.5,142.5 292.5,142.5C 292.5,143.5 292.5,144.5 292.5,145.5 Z"/></g>
<g><path style="opacity:0.678" fill="#fdfdfd" d="M 42.5,168.5 C 44.5,168.5 46.5,168.5 48.5,168.5C 48.5,169.5 48.5,170.5 48.5,171.5C 49.5,171.5 50.5,171.5 51.5,171.5C 51.5,173.5 51.5,175.5 51.5,177.5C 50.5,177.5 49.5,177.5 48.5,177.5C 48.5,178.5 48.5,179.5 48.5,180.5C 46.5,180.5 44.5,180.5 42.5,180.5C 42.5,179.5 42.5,178.5 42.5,177.5C 41.5,177.5 40.5,177.5 39.5,177.5C 39.5,175.5 39.5,173.5 39.5,171.5C 40.5,171.5 41.5,171.5 42.5,171.5C 42.5,170.5 42.5,169.5 42.5,168.5 Z"/></g>
<g><path style="opacity:0.667" fill="#fefefe" d="M 300.5,168.5 C 303.5,168.5 306.5,168.5 309.5,168.5C 309.5,172.5 309.5,176.5 309.5,180.5C 306.5,180.5 303.5,180.5 300.5,180.5C 300.5,176.5 300.5,172.5 300.5,168.5 Z"/></g>
<g><path style="opacity:0.051" fill="#eaebea" d="M 329.5,194.5 C 329.5,195.5 329.5,196.5 329.5,197.5C 328.5,197.5 327.5,197.5 326.5,197.5C 326.5,196.5 326.5,195.5 326.5,194.5C 327.5,194.5 328.5,194.5 329.5,194.5 Z"/></g>
<g><path style="opacity:0.522" fill="#fdfdfd" d="M 45.5,223.5 C 43.5,223.5 41.5,223.5 39.5,223.5C 39.5,221.5 39.5,219.5 39.5,217.5C 38.5,217.5 37.5,217.5 36.5,217.5C 36.5,216.5 36.5,215.5 36.5,214.5C 37.5,214.5 38.5,214.5 39.5,214.5C 39.5,213.5 39.5,212.5 39.5,211.5C 38.5,211.5 37.5,211.5 36.5,211.5C 36.5,206.833 36.5,202.167 36.5,197.5C 42.5,197.5 48.5,197.5 54.5,197.5C 54.5771,203.252 55.2438,208.919 56.5,214.5C 53.8333,214.5 51.1667,214.5 48.5,214.5C 48.5,215.5 48.5,216.5 48.5,217.5C 47.5,217.5 46.5,217.5 45.5,217.5C 45.5,219.5 45.5,221.5 45.5,223.5 Z M 42.5,208.5 C 42.5,209.5 42.5,210.5 42.5,211.5C 44.5,211.5 46.5,211.5 48.5,211.5C 48.5,210.5 48.5,209.5 48.5,208.5C 46.5,208.5 44.5,208.5 42.5,208.5 Z"/></g>
<g><path style="opacity:0.525" fill="#fdfdfd" d="M 300.5,229.5 C 301.918,231.308 303.918,231.975 306.5,231.5C 306.5,233.5 306.5,235.5 306.5,237.5C 305.5,237.5 304.5,237.5 303.5,237.5C 303.5,239.5 303.5,241.5 303.5,243.5C 301.5,243.5 299.5,243.5 297.5,243.5C 297.5,244.5 297.5,245.5 297.5,246.5C 298.5,246.5 299.5,246.5 300.5,246.5C 300.5,247.5 300.5,248.5 300.5,249.5C 298.5,250.167 296.5,250.833 294.5,251.5C 293.833,255.5 293.167,259.5 292.5,263.5C 290.5,263.5 288.5,263.5 286.5,263.5C 286.5,265.5 286.5,267.5 286.5,269.5C 285.5,269.5 284.5,269.5 283.5,269.5C 283.5,270.5 283.5,271.5 283.5,272.5C 281.8,272.626 280.3,273.293 279,274.5C 277.7,273.293 276.2,272.626 274.5,272.5C 274.5,275.167 274.5,277.833 274.5,280.5C 272.833,280.5 271.167,280.5 269.5,280.5C 269.5,282.5 269.5,284.5 269.5,286.5C 268.5,286.5 267.5,286.5 266.5,286.5C 266.5,285.5 266.5,284.5 266.5,283.5C 265.5,283.5 264.5,283.5 263.5,283.5C 263.5,285.5 263.5,287.5 263.5,289.5C 262.5,289.5 261.5,289.5 260.5,289.5C 260.5,290.5 260.5,291.5 260.5,292.5C 258.5,292.5 256.5,292.5 254.5,292.5C 254.5,294.167 254.5,295.833 254.5,297.5C 250.833,297.5 247.167,297.5 243.5,297.5C 243.5,296.5 243.5,295.5 243.5,294.5C 242.5,294.5 241.5,294.5 240.5,294.5C 240.5,297.5 240.5,300.5 240.5,303.5C 238.5,303.5 236.5,303.5 234.5,303.5C 234.5,304.5 234.5,305.5 234.5,306.5C 233.5,306.5 232.5,306.5 231.5,306.5C 231.719,307.675 231.386,308.675 230.5,309.5C 229.534,307.604 229.201,305.604 229.5,303.5C 228.5,303.5 227.5,303.5 226.5,303.5C 226.5,305.5 226.5,307.5 226.5,309.5C 225.5,309.5 224.5,309.5 223.5,309.5C 223.5,310.5 223.5,311.5 223.5,312.5C 220.5,312.5 217.5,312.5 214.5,312.5C 214.5,310.5 214.5,308.5 214.5,306.5C 213.5,306.5 212.5,306.5 211.5,306.5C 211.5,302.5 211.5,298.5 211.5,294.5C 216.43,293.405 221.43,292.739 226.5,292.5C 226.5,291.5 226.5,290.5 226.5,289.5C 227.5,289.5 228.5,289.5 229.5,289.5C 229.281,290.675 229.614,291.675 230.5,292.5C 231.466,290.604 231.799,288.604 231.5,286.5C 234.5,286.5 237.5,286.5 240.5,286.5C 240.5,284.5 240.5,282.5 240.5,280.5C 243.5,280.5 246.5,280.5 249.5,280.5C 249.5,278.5 249.5,276.5 249.5,274.5C 251.167,274.5 252.833,274.5 254.5,274.5C 254.821,272.952 255.821,272.285 257.5,272.5C 257.5,271.5 257.5,270.5 257.5,269.5C 258.5,269.5 259.5,269.5 260.5,269.5C 260.5,268.5 260.5,267.5 260.5,266.5C 261.5,266.5 262.5,266.5 263.5,266.5C 263.5,265.5 263.5,264.5 263.5,263.5C 264.5,263.5 265.5,263.5 266.5,263.5C 266.5,262.5 266.5,261.5 266.5,260.5C 267.5,260.5 268.5,260.5 269.5,260.5C 269.5,259.5 269.5,258.5 269.5,257.5C 270.5,257.5 271.5,257.5 272.5,257.5C 272.285,255.821 272.952,254.821 274.5,254.5C 274.5,252.833 274.5,251.167 274.5,249.5C 275.5,249.5 276.5,249.5 277.5,249.5C 277.5,248.5 277.5,247.5 277.5,246.5C 278.5,246.5 279.5,246.5 280.5,246.5C 280.5,245.5 280.5,244.5 280.5,243.5C 281.5,243.5 282.5,243.5 283.5,243.5C 283.5,240.5 283.5,237.5 283.5,234.5C 284.5,234.5 285.5,234.5 286.5,234.5C 286.5,233.5 286.5,232.5 286.5,231.5C 287.5,231.5 288.5,231.5 289.5,231.5C 289.5,229.833 289.5,228.167 289.5,226.5C 291.167,226.5 292.833,226.5 294.5,226.5C 293.871,224.535 293.204,222.535 292.5,220.5C 293.795,217.621 294.462,214.621 294.5,211.5C 296.5,211.5 298.5,211.5 300.5,211.5C 300.5,210.5 300.5,209.5 300.5,208.5C 299.5,208.5 298.5,208.5 297.5,208.5C 297.5,204.833 297.5,201.167 297.5,197.5C 303.5,197.5 309.5,197.5 315.5,197.5C 316.129,199.465 316.796,201.465 317.5,203.5C 316.336,206.067 315.67,208.734 315.5,211.5C 311.5,211.5 307.5,211.5 303.5,211.5C 303.5,212.5 303.5,213.5 303.5,214.5C 306.5,214.5 309.5,214.5 312.5,214.5C 312.5,217.5 312.5,220.5 312.5,223.5C 311.5,223.5 310.5,223.5 309.5,223.5C 309.5,225.5 309.5,227.5 309.5,229.5C 306.5,229.5 303.5,229.5 300.5,229.5 Z M 303.5,200.5 C 303.5,202.5 303.5,204.5 303.5,206.5C 304.5,206.5 305.5,206.5 306.5,206.5C 306.5,204.5 306.5,202.5 306.5,200.5C 305.5,200.5 304.5,200.5 303.5,200.5 Z M 300.5,229.5 C 300.5,228.5 300.5,227.5 300.5,226.5C 299.5,226.5 298.5,226.5 297.5,226.5C 297.5,227.5 297.5,228.5 297.5,229.5C 298.5,229.5 299.5,229.5 300.5,229.5 Z M 297.5,234.5 C 297.5,235.5 297.5,236.5 297.5,237.5C 298.5,237.5 299.5,237.5 300.5,237.5C 300.5,236.5 300.5,235.5 300.5,234.5C 299.5,234.5 298.5,234.5 297.5,234.5 Z M 289.5,249.5 C 289.5,248.5 289.5,247.5 289.5,246.5C 287.5,246.5 285.5,246.5 283.5,246.5C 283.5,247.5 283.5,248.5 283.5,249.5C 285.5,249.5 287.5,249.5 289.5,249.5 Z M 289.5,249.5 C 291.781,249.077 293.448,249.744 294.5,251.5C 292.219,251.923 290.552,251.256 289.5,249.5 Z M 274.5,254.5 C 274.5,256.5 274.5,258.5 274.5,260.5C 275.5,260.5 276.5,260.5 277.5,260.5C 277.5,258.5 277.5,256.5 277.5,254.5C 276.5,254.5 275.5,254.5 274.5,254.5 Z M 286.5,263.5 C 286.5,262.5 286.5,261.5 286.5,260.5C 285.5,260.5 284.5,260.5 283.5,260.5C 283.5,259.5 283.5,258.5 283.5,257.5C 282.5,257.5 281.5,257.5 280.5,257.5C 280.5,259.5 280.5,261.5 280.5,263.5C 282.5,263.5 284.5,263.5 286.5,263.5 Z M 272.5,269.5 C 272.5,268.5 272.5,267.5 272.5,266.5C 271.5,266.5 270.5,266.5 269.5,266.5C 269.5,267.5 269.5,268.5 269.5,269.5C 270.5,269.5 271.5,269.5 272.5,269.5 Z M 260.5,269.5 C 260.5,270.5 260.5,271.5 260.5,272.5C 261.5,272.5 262.5,272.5 263.5,272.5C 263.5,271.5 263.5,270.5 263.5,269.5C 262.5,269.5 261.5,269.5 260.5,269.5 Z M 272.5,269.5 C 274.048,269.821 274.715,270.821 274.5,272.5C 272.952,272.179 272.285,271.179 272.5,269.5 Z M 254.5,274.5 C 255.5,274.5 256.5,274.5 257.5,274.5C 257.5,275.5 257.5,276.5 257.5,277.5C 257.5,276.5 257.5,275.5 257.5,274.5C 256.5,274.5 255.5,274.5 254.5,274.5 Z M 257.5,277.5 C 257.5,279.5 257.5,281.5 257.5,283.5C 258.5,283.5 259.5,283.5 260.5,283.5C 260.5,281.5 260.5,279.5 260.5,277.5C 259.5,277.5 258.5,277.5 257.5,277.5 Z M 269.5,280.5 C 269.5,279.5 269.5,278.5 269.5,277.5C 268.5,277.5 267.5,277.5 266.5,277.5C 266.5,278.5 266.5,279.5 266.5,280.5C 267.5,280.5 268.5,280.5 269.5,280.5 Z M 249.5,280.5 C 251.048,280.821 251.715,281.821 251.5,283.5C 250.833,283.5 250.167,283.5 249.5,283.5C 249.5,282.5 249.5,281.5 249.5,280.5 Z M 249.5,283.5 C 249.5,284.5 249.5,285.5 249.5,286.5C 248.5,286.5 247.5,286.5 246.5,286.5C 246.5,285.5 246.5,284.5 246.5,283.5C 247.5,283.5 248.5,283.5 249.5,283.5 Z M 251.5,283.5 C 252.5,283.5 253.5,283.5 254.5,283.5C 254.5,284.5 254.5,285.5 254.5,286.5C 254.5,285.5 254.5,284.5 254.5,283.5C 253.5,283.5 252.5,283.5 251.5,283.5 Z M 246.5,286.5 C 245.5,286.5 244.5,286.5 243.5,286.5C 243.5,287.5 243.5,288.5 243.5,289.5C 244.5,289.5 245.5,289.5 246.5,289.5C 246.5,288.5 246.5,287.5 246.5,286.5 Z M 254.5,286.5 C 254.5,287.5 254.5,288.5 254.5,289.5C 255.5,289.5 256.5,289.5 257.5,289.5C 257.5,288.5 257.5,287.5 257.5,286.5C 256.5,286.5 255.5,286.5 254.5,286.5 Z M 237.5,289.5 C 237.5,290.5 237.5,291.5 237.5,292.5C 238.5,292.5 239.5,292.5 240.5,292.5C 240.5,291.5 240.5,290.5 240.5,289.5C 239.5,289.5 238.5,289.5 237.5,289.5 Z M 217.5,297.5 C 217.5,298.5 217.5,299.5 217.5,300.5C 218.5,300.5 219.5,300.5 220.5,300.5C 220.5,299.5 220.5,298.5 220.5,297.5C 219.5,297.5 218.5,297.5 217.5,297.5 Z M 226.5,303.5 C 225.5,303.5 224.5,303.5 223.5,303.5C 223.5,301.5 223.5,299.5 223.5,297.5C 224.5,297.5 225.5,297.5 226.5,297.5C 226.5,299.5 226.5,301.5 226.5,303.5 Z M 234.5,303.5 C 234.5,302.5 234.5,301.5 234.5,300.5C 233.5,300.5 232.5,300.5 231.5,300.5C 231.5,301.5 231.5,302.5 231.5,303.5C 232.5,303.5 233.5,303.5 234.5,303.5 Z M 223.5,303.5 C 222.5,303.5 221.5,303.5 220.5,303.5C 220.5,304.5 220.5,305.5 220.5,306.5C 221.5,306.5 222.5,306.5 223.5,306.5C 223.5,305.5 223.5,304.5 223.5,303.5 Z"/></g>
<g><path style="opacity:0.516" fill="#fdfdfd" d="M 45.5,223.5 C 48.5,223.5 51.5,223.5 54.5,223.5C 54.5,222.5 54.5,221.5 54.5,220.5C 56.1667,220.5 57.8333,220.5 59.5,220.5C 59.5,222.5 59.5,224.5 59.5,226.5C 60.5,226.5 61.5,226.5 62.5,226.5C 62.5,228.167 62.5,229.833 62.5,231.5C 63.5,231.5 64.5,231.5 65.5,231.5C 65.5,233.5 65.5,235.5 65.5,237.5C 66.5,237.5 67.5,237.5 68.5,237.5C 68.5,238.5 68.5,239.5 68.5,240.5C 69.5,240.5 70.5,240.5 71.5,240.5C 71.5,242.5 71.5,244.5 71.5,246.5C 72.5,246.5 73.5,246.5 74.5,246.5C 74.5,247.5 74.5,248.5 74.5,249.5C 70.5,250.167 66.5,250.833 62.5,251.5C 62.5,253.5 62.5,255.5 62.5,257.5C 60.5,257.5 58.5,257.5 56.5,257.5C 55.6877,255.257 55.0211,252.924 54.5,250.5C 55.0211,248.076 55.6877,245.743 56.5,243.5C 57.5,243.5 58.5,243.5 59.5,243.5C 59.5,242.5 59.5,241.5 59.5,240.5C 60.5,240.5 61.5,240.5 62.5,240.5C 62.5,239.5 62.5,238.5 62.5,237.5C 60.5,237.5 58.5,237.5 56.5,237.5C 56.5,238.5 56.5,239.5 56.5,240.5C 53.8333,240.5 51.1667,240.5 48.5,240.5C 48.5,238.5 48.5,236.5 48.5,234.5C 50.5,234.5 52.5,234.5 54.5,234.5C 54.955,232.633 55.6216,230.8 56.5,229C 55.5658,225.846 54.8991,226.012 54.5,229.5C 50.5,230.167 46.5,230.833 42.5,231.5C 42.5,229.833 42.5,228.167 42.5,226.5C 43.5,226.5 44.5,226.5 45.5,226.5C 45.5,225.5 45.5,224.5 45.5,223.5 Z"/></g>
<g><path style="opacity:0.523" fill="#fdfdfd" d="M 137.5,300.5 C 138.5,300.5 139.5,300.5 140.5,300.5C 140.201,298.396 140.534,296.396 141.5,294.5C 142.386,295.325 142.719,296.325 142.5,297.5C 146.5,297.5 150.5,297.5 154.5,297.5C 154.5,298.5 154.5,299.5 154.5,300.5C 160.167,300.5 165.833,300.5 171.5,300.5C 171.5,302.5 171.5,304.5 171.5,306.5C 170.5,306.5 169.5,306.5 168.5,306.5C 168.5,308.5 168.5,310.5 168.5,312.5C 169.5,312.5 170.5,312.5 171.5,312.5C 171.5,314.167 171.5,315.833 171.5,317.5C 166.833,317.5 162.167,317.5 157.5,317.5C 157.5,312.833 157.5,308.167 157.5,303.5C 156.5,303.5 155.5,303.5 154.5,303.5C 154.5,306.5 154.5,309.5 154.5,312.5C 153.5,312.5 152.5,312.5 151.5,312.5C 151.5,314.167 151.5,315.833 151.5,317.5C 149.5,316.833 147.5,316.167 145.5,315.5C 145.5,314.5 145.5,313.5 145.5,312.5C 146.5,312.5 147.5,312.5 148.5,312.5C 148.5,309.5 148.5,306.5 148.5,303.5C 147.5,303.5 146.5,303.5 145.5,303.5C 145.5,302.5 145.5,301.5 145.5,300.5C 144.5,300.5 143.5,300.5 142.5,300.5C 142.68,304.682 142.013,308.682 140.5,312.5C 137.5,312.5 134.5,312.5 131.5,312.5C 131.5,311.5 131.5,310.5 131.5,309.5C 130.5,309.5 129.5,309.5 128.5,309.5C 128.5,306.5 128.5,303.5 128.5,300.5C 129.5,300.5 130.5,300.5 131.5,300.5C 131.5,299.5 131.5,298.5 131.5,297.5C 129.5,297.5 127.5,297.5 125.5,297.5C 125.5,298.5 125.5,299.5 125.5,300.5C 124.5,300.5 123.5,300.5 122.5,300.5C 122.5,302.5 122.5,304.5 122.5,306.5C 120.833,306.5 119.167,306.5 117.5,306.5C 117.598,301.734 118.264,297.067 119.5,292.5C 117.833,292.5 116.167,292.5 114.5,292.5C 114.5,295.167 114.5,297.833 114.5,300.5C 111.5,300.5 108.5,300.5 105.5,300.5C 105.5,298.5 105.5,296.5 105.5,294.5C 107.5,293.833 109.5,293.167 111.5,292.5C 111.5,291.5 111.5,290.5 111.5,289.5C 110.5,289.5 109.5,289.5 108.5,289.5C 108.5,288.5 108.5,287.5 108.5,286.5C 107.5,286.5 106.5,286.5 105.5,286.5C 105.5,288.5 105.5,290.5 105.5,292.5C 102.975,293.64 100.308,294.307 97.5,294.5C 98.0282,291.333 98.6949,288.166 99.5,285C 99.1667,283.5 98.8333,282 98.5,280.5C 97.5344,282.396 97.2011,284.396 97.5,286.5C 96.5,286.5 95.5,286.5 94.5,286.5C 94.5,287.5 94.5,288.5 94.5,289.5C 91.5,289.5 88.5,289.5 85.5,289.5C 85.5,288.5 85.5,287.5 85.5,286.5C 84.5,286.5 83.5,286.5 82.5,286.5C 82.5,284.5 82.5,282.5 82.5,280.5C 80.5,280.5 78.5,280.5 76.5,280.5C 76.5,278.5 76.5,276.5 76.5,274.5C 74.8333,274.5 73.1667,274.5 71.5,274.5C 71.5,271.833 71.5,269.167 71.5,266.5C 69.5,266.5 67.5,266.5 65.5,266.5C 65.5,264.5 65.5,262.5 65.5,260.5C 66.5,260.5 67.5,260.5 68.5,260.5C 68.5,259.5 68.5,258.5 68.5,257.5C 70.5,257.5 72.5,257.5 74.5,257.5C 74.5,256.5 74.5,255.5 74.5,254.5C 76.1667,254.5 77.8333,254.5 79.5,254.5C 79.5,255.5 79.5,256.5 79.5,257.5C 80.5,257.5 81.5,257.5 82.5,257.5C 82.5,258.5 82.5,259.5 82.5,260.5C 83.5,260.5 84.5,260.5 85.5,260.5C 85.5,262.5 85.5,264.5 85.5,266.5C 87.5,266.5 89.5,266.5 91.5,266.5C 91.5,268.5 91.5,270.5 91.5,272.5C 95.827,271.803 98.4937,273.47 99.5,277.5C 101.5,277.5 103.5,277.5 105.5,277.5C 105.5,278.5 105.5,279.5 105.5,280.5C 107.5,280.5 109.5,280.5 111.5,280.5C 111.5,281.5 111.5,282.5 111.5,283.5C 113.5,283.5 115.5,283.5 117.5,283.5C 118.167,285.5 118.833,287.5 119.5,289.5C 121.5,289.5 123.5,289.5 125.5,289.5C 125.5,290.5 125.5,291.5 125.5,292.5C 129.5,292.5 133.5,292.5 137.5,292.5C 137.5,295.167 137.5,297.833 137.5,300.5 Z M 85.5,277.5 C 86.5,277.5 87.5,277.5 88.5,277.5C 88.5,276.5 88.5,275.5 88.5,274.5C 87.5,274.5 86.5,274.5 85.5,274.5C 85.5,275.5 85.5,276.5 85.5,277.5 Z M 85.5,277.5 C 85.5,278.5 85.5,279.5 85.5,280.5C 84.5,280.5 83.5,280.5 82.5,280.5C 82.5,279.5 82.5,278.5 82.5,277.5C 83.5,277.5 84.5,277.5 85.5,277.5 Z M 137.5,300.5 C 136.5,300.5 135.5,300.5 134.5,300.5C 134.5,302.5 134.5,304.5 134.5,306.5C 135.5,306.5 136.5,306.5 137.5,306.5C 137.5,304.5 137.5,302.5 137.5,300.5 Z"/></g>
<g><path style="opacity:0.541" fill="#fdfdfd" d="M 197.5,297.5 C 200.5,297.5 203.5,297.5 206.5,297.5C 206.5,301.5 206.5,305.5 206.5,309.5C 204.5,309.5 202.5,309.5 200.5,309.5C 200.5,312.167 200.5,314.833 200.5,317.5C 198.5,316.833 196.5,316.167 194.5,315.5C 194.5,310.5 194.5,305.5 194.5,300.5C 195.5,300.5 196.5,300.5 197.5,300.5C 197.5,299.5 197.5,298.5 197.5,297.5 Z"/></g>
<g><path style="opacity:0.637" fill="#fdfdfd" d="M 180.5,300.5 C 184.167,300.5 187.833,300.5 191.5,300.5C 191.5,306.167 191.5,311.833 191.5,317.5C 186.653,317.768 181.986,317.102 177.5,315.5C 177.5,311.5 177.5,307.5 177.5,303.5C 178.5,303.5 179.5,303.5 180.5,303.5C 180.5,302.5 180.5,301.5 180.5,300.5 Z M 183.5,306.5 C 183.5,308.5 183.5,310.5 183.5,312.5C 185.167,312.5 186.833,312.5 188.5,312.5C 188.5,311.5 188.5,310.5 188.5,309.5C 187.5,309.5 186.5,309.5 185.5,309.5C 185.715,307.821 185.048,306.821 183.5,306.5 Z"/></g>
<g><path style="opacity:0.067" fill="#eff0ef" d="M 88.5,306.5 C 89.5,306.5 90.5,306.5 91.5,306.5C 91.5,307.5 91.5,308.5 91.5,309.5C 91.5,308.5 91.5,307.5 91.5,306.5C 90.5,306.5 89.5,306.5 88.5,306.5 Z"/></g>
</svg>
